<?xml version="1.0" standalone="no"?>
<!DOCTYPE svg PUBLIC "-//W3C//DTD SVG 1.1//EN" "http://www.w3.org/Graphics/SVG/1.1/DTD/svg11.dtd" >
<!--
2013-9-30: Created.
-->
<svg>
<metadata>
Created by iconfont
</metadata>
<defs>

<font id="iconfont" horiz-adv-x="1024" >
  <font-face
    font-family="iconfont"
    font-weight="500"
    font-stretch="normal"
    units-per-em="1024"
    ascent="896"
    descent="-128"
  />
    <missing-glyph />
    
    <glyph glyph-name="bianji" unicode="&#59031;" d="M982.492729-101.546667H44.224284a42.666667 42.666667 0 1 0 0 85.276445h938.268445a42.666667 42.666667 0 0 0 0-85.304889zM154.674062 49.379556a85.304889 85.304889 0 0 0-81.891555 62.264888 81.464889 81.464889 0 0 0 0 47.331556l56.746666 178.716444a42.666667 42.666667 0 0 0 10.24 16.611556l192.341334 200.874667L634.048284 857.6a127.943111 127.943111 0 0 0 180.849778 0l60.558222-60.586667a127.943111 127.943111 0 0 0 0-180.792889L573.490062 314.680889l-192.768-200.448a42.666667 42.666667 0 0 0-19.626666-11.52l-183.808-49.891556a80.611556 80.611556 0 0 0-22.613334-3.413333z m52.053334 253.326222l-52.053334-168.021334 172.743111 47.331556L513.358507 374.385778l170.609777 172.743111-119.011555 118.983111-170.581333-170.609778-187.676445-192.768zM625.486507 728.376889l120.718222-120.689778L814.869618 676.352a42.666667 42.666667 0 0 1 0 60.558222L754.738062 797.013333a42.666667 42.666667 0 0 1-60.558222 0l-68.664889-68.664889z"  horiz-adv-x="1025" />

    
    <glyph glyph-name="baobao" unicode="&#59032;" d="M724.79827 478.650811c-24.243892 0-43.865946 20.203243-43.865946 45.139027 0 145.518703-77.325838 268.454054-168.821621 268.454054-91.495784 0-168.821622-122.935351-168.821622-268.454054 0-24.908108-19.622054-45.111351-43.83827-45.111352-24.216216 0-43.865946 20.203243-43.865946 45.111352 0 201.119135 112.667676 358.676757 256.525838 358.676757 141.450378 0 256.553514-160.906378 256.553513-358.676757 0-24.908108-19.64973-45.111351-43.865946-45.111352zM682.205405-111.948108H341.988324c-208.093405 0-327.430919 96.172973-327.430919 263.887567a47.048649 47.048649 0 0 0 0.138379 3.597838l28.339892 363.52c1.826595 23.441297 20.867459 41.513514 43.727567 41.513514h850.694919c22.860108 0 41.873297-18.072216 43.727568-41.513514l28.339892-363.52c0.110703-1.190054 0.138378-2.407784 0.138378-3.597838 0-167.714595-119.337514-263.887568-327.403243-263.887567zM102.289297 150.140541c0.802595-114.079135 81.421838-171.921297 239.671352-171.921298h340.272432c158.277189 0 238.896432 57.842162 239.726703 171.921298l-24.991135 320.12454H127.252757l-24.96346-320.12454z"  horiz-adv-x="1024" />

    
    <glyph glyph-name="bianji1" unicode="&#59033;" d="M821.333333-128H201.955556A202.296889 202.296889 0 0 0 0 74.097778V693.902222A202.296889 202.296889 0 0 0 201.955556 896h309.674666a40.391111 40.391111 0 0 0 0-80.839111H201.955556a121.486222 121.486222 0 0 1-121.173334-121.258667v-619.804444a121.486222 121.486222 0 0 1 121.173334-121.258667h619.377777a121.486222 121.486222 0 0 1 121.173334 121.258667V384a40.391111 40.391111 0 1 0 80.782222 0v-309.902222a202.296889 202.296889 0 0 0-201.955556-202.097778z m33.905778 932.124444l37.973333-38.286222 38.257778-38.001778-185.827555-185.912888-222.151111-222.065778-83.740445-7.793778 7.793778 83.797333 221.895111 222.321778 185.799111 185.912889z m0 91.875556c-14.336 0-28.103111-5.688889-38.229333-15.900444l-204.657778-204.8-235.349333-237.397334a26.965333 26.965333 0 0 1-7.822223-16.440889l-15.075555-167.879111a26.965333 26.965333 0 0 1 26.936889-29.383111h2.417778l167.765333 15.075556a26.908444 26.908444 0 0 1 16.440889 7.822222l235.889778 236.088889 204.657777 204.8a53.902222 53.902222 0 0 1 0 76.231111l-57.912889 58.766222L893.212444 880.071111A53.845333 53.845333 0 0 1 855.239111 896z"  horiz-adv-x="1024" />

    
    <glyph glyph-name="bianqian" unicode="&#59034;" d="M984.689778 415.630222L543.630222 856.689778a133.660444 133.660444 0 0 1-189.354666 0l-47.217778-47.217778a44.743111 44.743111 0 1 1 63.260444-63.260444l47.217778 47.217777a44.544 44.544 0 0 0 62.833778 0l441.059555-441.059555c17.265778-17.351111 17.265778-45.454222 0-62.805334L606.435556-25.429333a44.544 44.544 0 0 0-62.805334 0L102.570667 415.630222a44.544 44.544 0 0 0 0 62.805334l47.217777 47.217777a44.743111 44.743111 0 1 1-63.260444 63.288889l-47.217778-47.217778a133.660444 133.660444 0 0 1 0-189.354666l441.059556-441.059556a133.660444 133.660444 0 0 1 189.354666 0l314.965334 314.965334a133.660444 133.660444 0 0 1 0 189.354666z m-689.664 115.825778c-2.844444-8.476444-4.352-17.351111-4.437334-26.282667a89.116444 89.116444 0 1 1 89.088 89.116445 89.116444 89.116444 0 0 1-19.143111 0l-245.475555 235.235555a44.544 44.544 0 1 1-62.833778-63.288889l242.801778-234.780444z"  horiz-adv-x="1024" />

    
    <glyph glyph-name="biaoqian" unicode="&#59035;" d="M364.802944-127.97952a64.852036 64.852036 0 0 0-48.212369 21.788008l-51.625634 56.318874-30.719386-50.34566a64.425378 64.425378 0 0 0-76.798464-23.039539 70.82525 70.82525 0 0 0-42.665813 66.558669V774.82909A132.264021 132.264021 0 0 0 242.778718 896h511.98976a137.383919 137.383919 0 0 0 92.584815-42.665813 114.34438 114.34438 0 0 0 35.412625-78.505097v-831.130044a70.82525 70.82525 0 0 0-42.665813-66.558669 64.425378 64.425378 0 0 0-70.82525 16.213009 28.159437 28.159437 0 0 0-5.119898 7.281632L733.862229-50.32774l-52.905608-56.318874a63.99872 63.99872 0 0 0-88.318234-6.82653l-93.864789 75.51849-93.438131-75.51849a64.852036 64.852036 0 0 0-40.532523-14.506376z m133.970654 181.35815c14.790815 0 29.098085-5.148341 40.532523-14.506376l91.731498-73.811857 58.025506 62.718745a64.425378 64.425378 0 0 0 47.359053 20.906249 61.012113 61.012113 0 0 0 47.359053-20.479591 23.466197 23.466197 0 0 0 5.546556-7.253188l8.106504-12.799744v767.98464a30.292727 30.292727 0 0 1-10.239795 19.626275A52.905609 52.905609 0 0 1 754.768478 810.668373h-511.98976c-16.639667 0-42.665813-20.052932-42.665814-35.839283v-767.98464l8.959821 14.961478a42.665813 42.665813 0 0 0 5.546556 6.82653 60.158797 60.158797 0 0 0 47.359053 20.479591 64.852036 64.852036 0 0 0 47.785711-21.332907l57.17219-62.718745 91.30484 73.811857a63.99872 63.99872 0 0 0 40.532523 14.506376z m85.331627 202.63417h-255.994881a42.665813 42.665813 0 1 0 0 85.331626h255.994881a42.665813 42.665813 0 0 0 0-85.331626z m-85.331627 170.663253h-170.663254a42.665813 42.665813 0 1 0 0 85.331627h170.663254a42.665813 42.665813 0 1 0 0-85.331627z m170.663253 170.663254h-341.326507a42.665813 42.665813 0 0 0 0 85.331626h341.326507a42.665813 42.665813 0 1 0 0-85.331626z"  horiz-adv-x="1024" />

    
    <glyph glyph-name="biaoqian1" unicode="&#59036;" d="M844.64783 805.260242a87.380775 87.380775 0 0 0 64.739142-28.102932c16.725226-17.862997 25.372282-41.813066 23.893181-66.246687l-13.937689-250.081958a35.69755 35.69755 0 0 0-10.268378-22.385635L461.503612-9.155888a96.141608 96.141608 0 0 0-68.323119-30.236251 88.290991 88.290991 0 0 0-62.605823 27.818488l-214.099965 214.12841a92.842074 92.842074 0 0 0 2.417762 130.928942L566.434497 781.082619c6.001739 5.973295 13.937689 9.614161 22.385635 10.268378l250.081957 13.937689h5.745741z m0 90.737198h-10.268378L584.26905 882.344194a124.585871 124.585871 0 0 1-81.635034-36.892209L55.347984 397.597069a183.266385 183.266385 0 0 1-3.015092-259.468565l213.787079-213.815523A177.805086 177.805086 0 0 1 393.180493-127.996018c49.77746 0 97.450044 19.939428 132.436487 55.352535L973.187454 374.898547a124.585871 124.585871 0 0 1 36.892208 81.635034l13.596358 250.110402A178.43086 178.43086 0 0 1 844.64783 895.99744z m-215.010181-333.878756a60.472503 60.472503 0 1 0 0-120.945005 60.472503 60.472503 0 0 0 0 120.945005z m0 90.737198a151.209701 151.209701 0 1 1-0.654218-302.419401 151.209701 151.209701 0 0 1 0.654218 302.419401z"  horiz-adv-x="1024" />

    
    <glyph glyph-name="cailan" unicode="&#59037;" d="M796.616649 270.834162H227.383351a43.284757 43.284757 0 0 0-43.533837 43.063352c0 23.801081 19.511351 43.063351 43.533837 43.063351h569.233298c24.022486 0 43.506162-19.289946 43.506162-43.063351 0-23.773405-19.483676-43.063351-43.506162-43.063352z m-29.05946-169.956324H256.442811a43.284757 43.284757 0 0 0-43.533838 43.063351c0 23.773405 19.483676 43.035676 43.533838 43.035676h511.059027c24.077838 0 43.533838-19.26227 43.533838-43.035676 0-23.801081-19.483676-43.063351-43.533838-43.063351z m-215.510486 491.741405h-76.246487a43.284757 43.284757 0 0 0-43.533838 43.063352c0 23.773405 19.483676 43.063351 43.533838 43.063351h76.246487c24.050162 0 43.533838-19.289946 43.533838-43.063351 0-23.801081-19.483676-43.063351-43.533838-43.063352z m223.148973-662.749405H216.866595c-51.2 0-152.991135 59.115243-155.122163 137.188324L14.059243 534.72173A42.011676 42.011676 0 0 0 13.837838 539.039135C13.837838 616.060541 83.442162 678.745946 169.015351 678.745946H215.87027c24.050162 0 43.533838-19.289946 43.533838-43.063351 0-23.801081-19.483676-43.063351-43.533838-43.063352H169.015351c-36.808649 0-66.892108-23.081514-68.082162-51.781189l47.602162-466.944c0.138378-1.439135 0.221405-2.87827 0.221406-4.317405 0-20.590703 50.342054-52.002595 68.746378-53.607784H775.195676c59.862486 0 100.047568 21.531676 100.047567 53.607784 0 1.439135 0.083027 2.87827 0.249081 4.317405l47.602162 466.944c-1.21773 28.699676-31.328865 51.781189-68.137513 51.781189h-46.356757a43.284757 43.284757 0 0 0-43.506162 43.063352c0 23.773405 19.483676 43.063351 43.506162 43.063351h46.356757c85.573189 0 155.205189-62.685405 155.205189-139.706811 0-1.439135-0.083027-2.87827-0.221405-4.317405L962.283243 67.168865c-1.300757-68.718703-59.308973-137.299027-187.087567-137.299027z m171.506162 496.778378H77.298162a43.284757 43.284757 0 0 0-43.506162 43.063352c0 23.773405 19.483676 43.035676 43.506162 43.035675h869.403676c24.022486 0 43.506162-19.26227 43.506162-43.035675 0-23.801081-19.483676-43.063351-43.506162-43.063352z m-239.588324 22.057514a43.284757 43.284757 0 0 0-43.506163 43.035675c0 143.830486-69.43827 265.326703-151.607351 265.326703-82.196757 0-151.607351-121.496216-151.607351-265.326703 0-23.773405-19.483676-43.035676-43.533838-43.035675a43.284757 43.284757 0 0 0-43.506162 43.035675c0 197.050811 104.835459 351.42573 238.647351 351.42573 133.811892 0 238.647351-154.347243 238.647351-351.42573 0-23.773405-19.483676-43.035676-43.533837-43.035675z"  horiz-adv-x="1024" />

    
    <glyph glyph-name="dalou" unicode="&#59038;" d="M981.333333-128h-938.666666a42.666667 42.666667 0 0 0 0 85.333333H85.333333V768A128 128 0 0 0 213.333333 896h302.506667a128 128 0 0 0 128-128v-224l202.24-58.453333A128 128 0 0 0 938.666667 362.666667V-42.666667h42.666666a42.666667 42.666667 0 0 0 0-85.333333z m-337.493333 85.333333H853.333333V362.666667a42.666667 42.666667 0 0 1-30.72 42.666666l-178.773333 51.626667v-148.906667h85.333333a42.666667 42.666667 0 0 0 0-85.333333h-85.333333v-72.106667h85.333333a42.666667 42.666667 0 0 0 0-85.333333h-85.333333V-42.666667z m-151.04 0h65.706667V768a42.666667 42.666667 0 0 1-42.666667 42.666667H213.333333A42.666667 42.666667 0 0 1 170.666667 768V-42.666667h66.133333v170.666667a42.666667 42.666667 0 0 0 42.666667 42.666667h170.666666a42.666667 42.666667 0 0 0 42.666667-42.666667v-170.666667z m-170.666667 0h85.333334v128h-85.333334V-42.666667z m128 320h-170.666666a42.666667 42.666667 0 0 0 0 85.333334h170.666666a42.666667 42.666667 0 0 0 0-85.333334z m0 170.666667h-170.666666a42.666667 42.666667 0 0 0 0 85.333333h170.666666a42.666667 42.666667 0 0 0 0-85.333333z m0 170.666667h-170.666666a42.666667 42.666667 0 0 0 0 85.333333h170.666666a42.666667 42.666667 0 0 0 0-85.333333z"  horiz-adv-x="1024" />

    
    <glyph glyph-name="biaoge" unicode="&#59039;" d="M834.844444 782.222222h-145.493333c-4.408889 13.653333-8.817778 22.755556-22.044444 36.408889C640.853333 855.04 596.764444 896 521.813333 896 446.862222 896 402.773333 855.04 376.32 818.631111c-4.408889-13.653333-8.817778-22.755556-13.226667-36.408889H217.6C142.648889 782.222222 85.333333 723.057778 85.333333 645.688889v-637.155556C85.333333-68.835556 142.648889-128 217.6-128h617.244444c74.951111 0 132.266667 59.164444 132.266667 136.533333V645.688889C967.111111 723.057778 909.795556 782.222222 834.844444 782.222222z m0-819.2H217.6c-26.453333 0-44.088889 18.204444-44.088889 45.511111V645.688889c0 27.306667 17.635556 45.511111 44.088889 45.511111h176.355556c22.044444 0 39.68 13.653333 44.088888 36.408889 0 0 8.817778 31.857778 17.635556 40.96 13.226667 18.204444 35.271111 36.408889 70.542222 36.408889s57.315556-18.204444 70.542222-36.408889c8.817778-9.102222 17.635556-40.96 17.635556-40.96 4.408889-22.755556 22.044444-36.408889 44.088889-36.408889h176.355555c26.453333 0 44.088889-18.204444 44.088889-45.511111v-637.155556c0-27.306667-17.635556-45.511111-44.088889-45.511111zM526.222222 365.027556h-225.194666c-27.022222 0-45.027556 18.033778-45.027556 45.056 0 27.022222 18.005333 45.027556 45.027556 45.027555H526.222222c27.022222 0 45.027556-18.005333 45.027556-45.027555s-18.005333-45.056-45.027556-45.056zM751.416889 184.888889H301.027556C274.005333 184.888889 256 202.894222 256 229.916444s18.005333 45.056 45.027556 45.056h450.389333c27.022222 0 45.027556-18.033778 45.027555-45.056 0-27.022222-18.005333-45.027556-45.027555-45.027555zM526.222222 612.750222c-27.022222 0-45.027556 18.005333-45.027555 45.027556v22.528c0 27.022222 18.005333 45.027556 45.027555 45.027555s45.027556-18.005333 45.027556-45.027555v-22.528c0-27.022222-18.005333-45.027556-45.027556-45.027556z"  horiz-adv-x="1024" />

    
    <glyph glyph-name="dayinji" unicode="&#59040;" d="M725.333333-128h-426.666666A128 128 0 0 0 170.666667 0V128H128A128 128 0 0 0 0 256v256A128 128 0 0 0 128 640H170.666667V768A128 128 0 0 0 298.666667 896h426.666666A128 128 0 0 0 853.333333 768V640h42.666667a128 128 0 0 0 128-128v-256a128 128 0 0 0-128-128H853.333333v-128a128 128 0 0 0-128-128z m-426.666666 469.333333A42.666667 42.666667 0 0 1 256 298.666667v-298.666667a42.666667 42.666667 0 0 1 42.666667-42.666667h426.666666a42.666667 42.666667 0 0 1 42.666667 42.666667V298.666667a42.666667 42.666667 0 0 1-42.666667 42.666666h-426.666666zM853.333333 213.333333h42.666667a42.666667 42.666667 0 0 1 42.666667 42.666667v256a42.666667 42.666667 0 0 1-42.666667 42.666667h-768A42.666667 42.666667 0 0 1 85.333333 512v-256A42.666667 42.666667 0 0 1 128 213.333333H170.666667v85.333334a128 128 0 0 0 128 128h426.666666A128 128 0 0 0 853.333333 298.666667v-85.333334zM256 640h512V768A42.666667 42.666667 0 0 1 725.333333 810.666667h-426.666666A42.666667 42.666667 0 0 1 256 768V640z m298.666667-597.333333h-170.666667a42.666667 42.666667 0 0 0 0 85.333333h170.666667a42.666667 42.666667 0 0 0 0-85.333333z m85.333333 128h-256a42.666667 42.666667 0 0 0 0 85.333333h256a42.666667 42.666667 0 0 0 0-85.333333z"  horiz-adv-x="1024" />

    
    <glyph glyph-name="biaodanbiaoqian" unicode="&#59041;" d="M54.186667 804.238222c36.892444 40.220444 89.6 62.663111 151.751111 62.663111h612.152889c48.924444 0 88.32-13.027556 119.125333-34.616889 30.378667-21.333333 49.92-49.208889 62.321778-75.434666a259.982222 259.982222 0 0 0 21.390222-70.371556c1.678222-10.666667 2.673778-21.418667 3.015111-32.199111v-1.080889h-42.666667 42.666667v-710.684444c0-13.824-6.883556-26.737778-18.460444-34.588445a43.235556 43.235556 0 0 0-39.367111-4.664889l-365.681778 137.386667L234.666667-96.711111a43.235556 43.235556 0 0 0-39.395556 4.664889 41.813333 41.813333 0 0 0-18.460444 34.588444v496.924445H42.666667c-23.552 0-42.666667 18.830222-42.666667 42.040889V653.198222c0 57.742222 17.834667 111.36 54.186667 151.04z m122.652444-280.746666V653.169778h85.333333v-649.671111l323.015112 121.372444c9.784889 3.697778 20.622222 3.697778 30.435555 0l323.015111-121.344V653.767111l-0.227555 3.982222a182.101333 182.101333 0 0 1-1.820445 15.786667 177.720889 177.720889 0 0 1-14.336 47.701333c-7.964444 16.668444-19.057778 31.715556-34.56 42.581334-15.104 10.609778-36.977778 19.057778-69.632 19.057777H205.909333c-40.277333 0-69.176889-13.994667-88.32-34.872888C97.905778 726.471111 85.333333 694.243556 85.333333 653.169778v-129.706667h91.505778z m42.666667 171.719111c11.320889 0 22.186667-4.408889 30.151111-12.288 8.021333-7.907556 12.515556-18.574222 12.515555-29.724445h-85.333333c0 23.210667 19.114667 42.012444 42.666667 42.012445z m147.797333-213.731556c0 23.210667 19.086222 42.012444 42.666667 42.012445h367.246222c23.580444 0 42.666667-18.801778 42.666667-42.012445 0-23.210667-19.086222-42.012444-42.666667-42.012444h-367.217778c-23.552 0-42.666667 18.773333-42.666666 42.012444h-0.028445z m0-171.690667c0 23.210667 19.086222 42.012444 42.666667 42.012445h163.242666c23.552 0 42.666667-18.801778 42.666667-42.012445 0-23.210667-19.114667-42.012444-42.666667-42.012444h-163.271111c-23.552 0-42.666667 18.801778-42.666666 42.012444z"  horiz-adv-x="1024" />

    
    <glyph glyph-name="dibiao" unicode="&#59042;" d="M84.730596 184.917333A93.098667 93.098667 0 0 0 170.746596 241.777778h62.008888a46.364444 46.364444 0 0 0 46.535112-46.222222 46.364444 46.364444 0 0 0-46.535112-46.222223H170.718151l-77.596444-184.888889h837.802666l-77.596444 184.888889h-62.037333c-16.64 0-32 8.817778-40.305778 23.096889a45.937778 45.937778 0 0 0 0 46.250667A46.592 46.592 0 0 0 791.290596 241.777778h62.037333c37.603556 0 71.509333-22.414222 85.987555-56.860445l77.539556-184.888889a91.875556 91.875556 0 0 0-8.448-86.840888A93.269333 93.269333 0 0 0 930.924373-128H93.121707a93.269333 93.269333 0 0 0-77.482667 41.187556A91.875556 91.875556 0 0 0 7.19104 0l77.596444 184.888889h-0.056888zM526.245262 803.185778c-127.146667 0-233.642667-107.491556-233.642666-244.252445 0-52.423111 15.729778-100.693333 42.382222-140.288 25.088-37.319111 82.375111-120.035556 133.632-193.763555l57.628444-82.744889c16.298667 23.352889 36.437333 52.252444 57.628445 82.773333a21197.312 21197.312 0 0 1 133.632 193.735111 250.311111 250.311111 0 0 1 42.382222 140.288c0 136.760889-106.496 244.252444-233.642667 244.252445z m0-742.542222l-38.4-26.453334v0.056889l-28.842666 41.301333-67.299556 96.568889a21212.16 21212.16 0 0 0-134.428444 194.929778A342.897778 342.897778 0 0 0 199.134151 558.933333C199.134151 743.168 343.717262 896 526.245262 896S853.356373 743.168 853.356373 558.933333c0.199111-68.266667-20.053333-135.054222-58.140444-191.886222a21191.395556 21191.395556 0 0 0-134.428445-194.929778l-67.299555-96.568889-28.842667-41.301333v-0.056889l-38.4 26.453334z m0 0l38.4-26.453334c-8.704-12.515556-23.068444-19.968-38.4-19.968a46.819556 46.819556 0 0 0-38.4 19.968l38.4 26.453334zM512.02304 630.528a47.416889 47.416889 0 1 1 0-94.833778 47.416889 47.416889 0 0 1 0 94.833778zM369.800818 583.111111a142.222222 142.222222 0 1 0 284.444444 0 142.222222 142.222222 0 0 0-284.444444 0z"  horiz-adv-x="1024" />

    
    <glyph glyph-name="deng" unicode="&#59043;" d="M512 810.695111c-187.847111 0-340.906667-154.254222-340.906667-345.571555a346.112 346.112 0 0 1 184.860445-307.342223 42.666667 42.666667 0 0 0 22.869333-37.831111v-75.377778c0-48.440889 38.627556-86.812444 85.248-86.812444h95.857778c46.648889 0 85.248 38.4 85.248 86.784v75.406222a42.666667 42.666667 0 0 0 22.869333 37.831111 346.112 346.112 0 0 1 184.888889 307.342223c0 191.317333-153.088 345.6-340.935111 345.6zM85.873778 465.123556C85.873778 702.634667 276.167111 896 512 896c235.804444 0 426.126222-193.365333 426.126222-430.876444a431.672889 431.672889 0 0 0-207.729778-370.062223v-50.517333c0-94.577778-75.861333-172.088889-170.467555-172.088889h-95.857778c-94.606222 0-170.467556 77.511111-170.467555 172.088889v50.488889a431.672889 431.672889 0 0 0-207.729778 370.090667zM512 448.199111c23.523556 0 42.609778-19.086222 42.609778-42.666667v-191.886222a42.638222 42.638222 0 1 0-85.219556 0v191.914667c0 23.552 19.057778 42.666667 42.609778 42.666667zM363.264 502.613333a42.609778 42.609778 0 0 0 58.168889 15.644445L512 465.834667l90.567111 52.366222a42.581333 42.581333 0 0 0 64.142222-36.892445 42.666667 42.666667 0 0 0-21.532444-36.977777l-111.872-64.682667a42.581333 42.581333 0 0 0-42.609778 0l-111.872 64.682667a42.666667 42.666667 0 0 0-15.587555 58.254222h0.028444z m51.313778-331.605333c0 23.552 19.086222 42.638222 42.609778 42.638222h109.624888a42.638222 42.638222 0 0 0 0-85.304889h-109.624888a42.638222 42.638222 0 0 0-42.609778 42.666667z m0-127.943111c0 23.552 19.086222 42.666667 42.609778 42.666667h109.624888a42.638222 42.638222 0 0 0 0-85.333334h-109.624888a42.638222 42.638222 0 0 0-42.609778 42.666667z"  horiz-adv-x="1024" />

    
    <glyph glyph-name="diannao" unicode="&#59044;" d="M0 668.444444c0 78.535111 62.520889 142.222222 139.662222 142.222223h744.675556C961.507556 810.666667 1024 746.979556 1024 668.444444v-407.694222c0-78.563556-62.520889-142.222222-139.662222-142.222222H139.662222c-77.141333 0-139.662222 63.658667-139.662222 142.222222V668.444444z m139.662222 47.416889c-25.742222 0-46.563556-21.248-46.563555-47.416889v-407.694222c0-26.168889 20.821333-47.416889 46.535111-47.416889h744.732444c25.685333 0 46.535111 21.219556 46.535111 47.416889V668.444444c0 26.168889-20.849778 47.416889-46.535111 47.416889H139.633778z m-139.662222-711.111111c0 26.168889 20.849778 47.388444 46.535111 47.388445h930.901333c16.64 0 32-9.016889 40.334223-23.694223a48.156444 48.156444 0 0 0 0-47.416888 46.392889 46.392889 0 0 0-40.334223-23.694223H46.535111C20.849778-42.666667 0-21.447111 0 4.750222zM455.111111 625.777778c0 23.552 21.219556 42.666667 47.416889 42.666666h47.416889C576.113778 668.444444 597.333333 649.329778 597.333333 625.777778s-21.219556-42.666667-47.388444-42.666667h-47.416889C476.359111 583.111111 455.111111 602.225778 455.111111 625.777778z"  horiz-adv-x="1024" />

    
    <glyph glyph-name="dingwei" unicode="&#59045;" d="M509.496889 818.688c192.455111 0 349.013333-145.493333 349.013333-324.238222 0-308.878222-250.794667-480.199111-345.031111-533.617778-93.468444 65.194667-352.995556 267.178667-352.995555 533.617778 0 178.744889 156.558222 324.266667 349.013333 324.266666z m0 76.714667c-234.097778 0-423.765333-179.000889-423.765333-400.952889 0-373.048889 423.765333-621.852444 423.765333-621.852445s423.793778 193.564444 423.793778 621.852445C933.262222 716.401778 743.537778 895.431111 509.496889 895.431111z m0-370.773334a74.808889 74.808889 0 0 0 69.12-47.36 78.165333 78.165333 0 0 0-16.213333-83.598222 73.415111 73.415111 0 0 0-81.521778-16.611555 76.743111 76.743111 0 0 0-46.165334 70.855111c0 42.382222 33.479111 76.714667 74.808889 76.714666z m0 76.714667c-82.602667 0-149.560889-68.693333-149.560889-153.429333 0-84.707556 66.958222-153.400889 149.560889-153.400889s149.560889 68.693333 149.560889 153.400889c0 84.764444-66.958222 153.429333-149.560889 153.429333z"  horiz-adv-x="1024" />

    
    <glyph glyph-name="duihua" unicode="&#59046;" d="M512 800.796444c239.872 0 435.2-152.775111 435.2-340.679111C947.2 272.241778 751.872 119.466667 512 119.466667a155.306667 155.306667 0 0 1-55.552-11.776 866.986667 866.986667 0 0 1-179.2-111.900445c-4.864 144.384-25.6 190.236444-61.696 215.665778C128 275.626667 76.8 366.307556 76.8 459.861333 76.8 648.021333 272.128 800.540444 512 800.540444v0.284445z m0 78.364445C230.4 879.160889 0 691.484444 0 459.861333c0-124.216889 65.792-235.861333 170.752-312.632889 25.6-18.858667 30.464-131.043556 30.464-216.462222-0.199111-12.288 4.380444-24.177778 12.714667-33.024 8.362667-8.846222 19.797333-13.937778 31.829333-14.136889 9.329778 0.369778 18.289778 3.754667 25.6 9.671111 64.256 50.858667 155.904 118.727111 211.2 140.231112a79.843556 79.843556 0 0 0 29.44 6.826666c281.6 0 512 187.875556 512 419.271111S793.6 878.876444 512 878.876444v0.284445z m166.4-312.632889h-332.8c-21.219556 0-38.4-17.607111-38.4-39.310222 0-21.703111 17.180444-39.310222 38.4-39.310222h332.8c21.219556 0 38.4 17.607111 38.4 39.310222 0 21.703111-17.180444 39.310222-38.4 39.310222z m-51.2-183.466667h-230.4c-21.219556 0-38.4-17.578667-38.4-39.281777 0-21.731556 17.180444-39.310222 38.4-39.310223h230.4c21.219556 0 38.4 17.578667 38.4 39.310223 0 21.703111-17.180444 39.310222-38.4 39.310222z"  horiz-adv-x="1024" />

    
    <glyph glyph-name="fasong" unicode="&#59047;" d="M1014.288782 766.691556a42.666667 42.666667 0 0 0 5.802667-45.141334L715.024782 66.389333a42.666667 42.666667 0 0 0-63.146666-16.952889l-234.666667 163.783112a42.666667 42.666667 0 0 0 48.839111 69.973333l193.024-134.741333 245.902222 528.099555L146.875449 487.537778l156.814222-104.248889a42.666667 42.666667 0 0 1 45.056-1.336889l235.719111 137.073778a42.666667 42.666667 0 1 0 42.922667-73.756445l-235.719111-137.102222a128 128 0 0 0-135.253334 4.039111L19.131449 470.016a42.666667 42.666667 0 0 0 13.312 76.942222l938.666667 233.984a42.666667 42.666667 0 0 0 43.207111-14.250666h-0.056889zM481.439004 209.123556a42.666667 42.666667 0 0 0 1.934223-60.302223l-153.514667-163.783111A42.666667 42.666667 0 0 0 256.045227 14.222222v163.811556a42.666667 42.666667 0 1 0 85.333333 0v-55.893334l79.786667 85.048889a42.666667 42.666667 0 0 0 60.302222 1.934223z"  horiz-adv-x="1024" />

    
    <glyph glyph-name="duoren" unicode="&#59048;" d="M424.760889 773.262222c-83.143111 0-164.977778-87.125333-164.977778-212.167111 0-23.381333 10.097778-50.432 27.733333-80.128 14.449778-24.376889 31.374222-46.506667 47.075556-66.958222l9.898667-13.084445c14.620444-19.2 25.827556-42.325333 25.116444-68.551111-0.682667-27.306667-13.994667-48.583111-29.354667-63.914666-10.666667-10.638222-24.234667-19.143111-36.778666-26.168889-12.714667-7.196444-28.330667-14.990222-45.340445-23.466667l-0.853333-0.483555c-35.157333-17.578667-80.924444-40.448-138.24-74.865778-18.005333-10.837333-24.234667-27.192889-24.234667-77.397334 0-11.605333 4.266667-20.650667 17.692445-30.321777 15.303111-11.093333 40.334222-20.707556 75.178666-27.676445 69.290667-13.937778 158.606222-14.193778 236.202667-12.743111l21.959111 0.398222c68.920889 1.166222 142.08 2.389333 200.561778 14.421334 32.341333 6.599111 54.954667 15.616 68.579556 25.884444 11.52 8.618667 16.128 17.351111 16.184888 30.264889a148.195556 148.195556 0 0 1-9.244444 48.184889c-6.599111 18.090667-14.392889 28.245333-19.057778 31.715555-43.178667 32.426667-86.812444 54.357333-124.046222 71.537778-6.456889 3.015111-13.084444 5.973333-19.655111 8.96-10.382222 4.608-20.679111 9.386667-30.919111 14.279111-13.112889 6.4-30.321778 15.274667-42.524445 27.477334-15.36 15.36-28.672 36.579556-29.354666 63.886222-0.711111 26.254222 10.524444 49.379556 25.059555 68.608l9.955556 12.999111c15.701333 20.508444 32.625778 42.638222 47.075555 66.958222 17.635556 29.752889 27.733333 56.803556 27.733334 80.213334 0 63.544889-15.985778 118.414222-41.813334 155.932444-25.031111 36.494222-58.595556 56.206222-99.612444 56.206222zM165.518222 561.095111C165.518222 718.961778 272.184889 867.555556 424.760889 867.555556c76.828444 0 137.557333-39.224889 177.294222-97.024C641.109333 713.756444 660.451556 638.976 660.451556 561.095111c0-48.327111-19.996444-92.956444-40.903112-128.284444-17.607111-29.696-38.684444-57.031111-54.357333-77.539556l-8.533333-11.178667c-1.991111-2.503111-3.697778-5.176889-5.176889-8.021333l1.080889-1.024c1.024-0.711111 5.404444-3.697778 16.952889-9.244444 7.879111-3.868444 16.469333-7.736889 26.510222-12.259556l22.328889-10.183111c39.367111-18.204444 90.026667-43.377778 141.084444-81.720889 25.685333-19.285333 41.614222-49.123556 51.000889-74.723555 9.699556-26.595556 15.075556-55.921778 14.990222-81.066667-0.227556-46.023111-21.788444-81.152-53.816889-105.244445-29.980444-22.471111-68.465778-35.072-106.268444-42.808888-67.726222-13.937778-150.215111-15.274667-217.372444-16.355556l-22.272-0.398222c-76.686222-1.422222-175.786667-1.706667-256.597334 14.592-40.163556 8.049778-80.469333 21.105778-111.701333 43.633778C24.120889-16.782222 0.540444 18.716444 0.540444 66.076444c0 48.924444 3.072 118.101333 70.058667 158.264889 60.416 36.295111 108.885333 60.529778 144.355556 78.250667l0.199111 0.113778a1089.706667 1089.706667 0 0 1 42.126222 21.76c11.093333 6.257778 15.189333 9.528889 16.327111 10.666666l0.881778 0.938667a50.460444 50.460444 0 0 1-5.176889 8.021333l-8.533333 11.178667c-15.729778 20.48-36.750222 47.843556-54.328889 77.539556-20.935111 35.328-40.931556 79.957333-40.931556 128.284444zM655.957333 772.266667c2.816 12.231111 10.24 22.897778 20.679111 29.525333a45.226667 45.226667 0 0 0 34.929778 5.888c48.526222-11.633778 93.013333-35.726222 125.240889-75.804444 32.483556-40.391111 49.265778-92.956444 49.265778-155.192889 0-74.069333-18.403556-123.562667-56.433778-172.259556a19.399111 19.399111 0 0 1-2.446222-6.087111 52.906667 52.906667 0 0 1 0.170667-26.595556c6.656-6.087111 17.863111-15.018667 32.853333-26.936888l22.016-17.692445c26.368-21.219556 57.543111-47.217778 82.801778-73.159111 32.682667-33.564444 59.790222-92.216889 59.505777-155.818667-0.426667-79.559111-69.404444-139.093333-138.467555-139.093333a46.051556 46.051556 0 0 0-40.078222 23.779556 48.64 48.64 0 0 0 0 47.502222c8.277333 14.705778 23.552 23.751111 40.106666 23.751111 23.381333 0 45.795556 22.471111 45.909334 44.487111 0.199111 37.888-16.924444 72.334222-32.369778 88.206222-21.020444 21.589333-48.412444 44.515556-74.496 65.564445l-17.436445 13.966222c-18.488889 14.734222-36.124444 28.842667-45.880888 38.257778a91.278222 91.278222 0 0 0-22.670223 38.570666c-3.896889 12.8-5.973333 26.168889-6.115555 39.594667-0.369778 24.888889 5.262222 56.661333 24.433778 81.180444 24.519111 31.345778 36.067556 59.761778 36.067555 112.782223 0 44.202667-11.662222 74.24-28.074667 94.663111-16.64 20.707556-41.642667 35.811556-74.951111 43.832889-11.946667 2.844444-22.300444 10.496-28.785777 21.191111-6.456889 10.695111-8.533333 23.608889-5.774223 35.868444z m172.999111-402.915556l-0.256 0.398222 0.284445-0.398222z"  horiz-adv-x="1024" />

    
    <glyph glyph-name="erji" unicode="&#59049;" d="M76.8-128c-26.709333 0-48.355556 21.845333-48.355556 48.753778V457.130667C28.444444 699.505778 223.288889 896 463.644444 896h96.711112C800.711111 896 995.555556 699.505778 995.555556 457.130667v-536.376889c0-26.908444-21.646222-48.753778-48.355556-48.753778h-96.711111c-80.128 0-145.066667 65.507556-145.066667 146.289778V115.768889c0 80.782222 64.938667 146.289778 145.066667 146.289778h48.355555v195.043555c0 188.529778-151.552 341.333333-338.488888 341.333334h-96.711112c-186.936889 0-338.488889-152.803556-338.488888-341.333334v-195.043555h48.355555c80.128 0 145.066667-65.479111 145.066667-146.289778v-97.507556C318.577778-62.492444 253.639111-128 173.511111-128H76.8z m48.355556 292.579556v-195.043556h48.355555c26.709333 0 48.355556 21.816889 48.355556 48.753778V115.768889c0 26.936889-21.646222 48.782222-48.355556 48.782222H125.155556z m773.688888 0h-48.355555c-26.709333 0-48.355556-21.845333-48.355556-48.782223v-97.507555c0-26.936889 21.646222-48.753778 48.355556-48.753778h48.355555v195.043556z"  horiz-adv-x="1024" />

    
    <glyph glyph-name="erweima" unicode="&#59050;" d="M426.666667 896H42.666667A42.666667 42.666667 0 0 1 0 853.333333V469.333333a42.666667 42.666667 0 0 1 42.666667-42.666666H426.666667a42.666667 42.666667 0 0 1 42.666666 42.666666V853.333333A42.666667 42.666667 0 0 1 426.666667 896z m-42.666667-384H85.333333V810.666667h298.666667v-298.666667z m42.666667-170.666667H42.666667A42.666667 42.666667 0 0 1 0 298.666667v-384A42.666667 42.666667 0 0 1 42.666667-128H426.666667a42.666667 42.666667 0 0 1 42.666666 42.666667V298.666667a42.666667 42.666667 0 0 1-42.666666 42.666666zM384-42.666667H85.333333V256h298.666667V-42.666667z m597.333333 938.666667H597.333333a42.666667 42.666667 0 0 1-42.666666-42.666667V469.333333a42.666667 42.666667 0 0 1 42.666666-42.666666h384A42.666667 42.666667 0 0 1 1024 469.333333V853.333333A42.666667 42.666667 0 0 1 981.333333 896zM938.666667 512H640V810.666667H938.666667v-298.666667zM170.666667 725.333333h128v-128H170.666667V725.333333z m0-554.666666h128V42.666667H170.666667v128z m725.333333 170.666666H1024V213.333333h-128v128z m0-341.333333h-85.333333V-128H1024v213.333333h-128v-85.333333z m-341.333333 0H682.666667V-128h-128v128z m170.666666 725.333333H853.333333v-128h-128V725.333333z m-170.666666-384H682.666667V213.333333h-128v128zM682.666667 213.333333h128v-213.333333H682.666667V213.333333z"  horiz-adv-x="1024" />

    
    <glyph glyph-name="gouwu" unicode="&#59051;" d="M0 579.896889a46.364444 46.364444 0 0 0 46.535111 46.222222h930.929778A46.364444 46.364444 0 0 0 1024 579.896889v-462.222222c0-127.658667-104.192-231.111111-232.732444-231.111111H232.732444C104.192-113.436444 0-9.984 0 117.674667v462.222222z m93.098667-46.222222v-416c0-76.600889 62.520889-138.666667 139.633777-138.666667h558.535112c77.112889 0 139.662222 62.065778 139.662222 138.666667V533.674667H93.070222zM199.111111 564.053333C199.111111 740.977778 346.766222 882.119111 526.222222 882.119111S853.333333 740.949333 853.333333 564.053333v-147.399111a46.648889 46.648889 0 0 0-46.734222-46.535111 46.648889 46.648889 0 0 0-46.734222 46.535111V564.053333c0 123.022222-103.367111 224.967111-233.642667 224.967111s-233.642667-101.944889-233.642666-224.967111v-147.399111a46.648889 46.648889 0 0 0-46.734223-46.535111A46.648889 46.648889 0 0 0 199.111111 416.654222V564.053333z"  horiz-adv-x="1024" />

    
    <glyph glyph-name="fenxiang" unicode="&#59052;" d="M796.531344 323.695281a227.653512 227.653512 0 0 1-197.877968-114.665703l-235.531091 144.697197a185.421724 185.421724 0 0 1 15.897353 75.306246c0 25.93629-5.261199 50.621268-14.901991 73.031133l236.07143 127.633849a156.982809 156.982809 0 0 1 111.253034-45.84353c86.653373 0 157.096565 69.95973 157.096565 155.987447C868.538676 825.841198 798.095484 895.800928 711.442111 895.800928S554.288669 825.841198 554.288669 739.84192c0-12.57 1.56414-24.684978 4.265837-36.401811l-245.058128-132.411587a189.403172 189.403172 0 0 1-123.993667 45.985725C85.103455 617.014247 0.014222 532.635987 0.014222 428.890827c0-103.802038 84.947038-187.981226 189.516927-187.981226 46.582942 0 89.468826 16.77896 122.429528 44.705974l258.822562-159.087289c-1.137557-9.44172-1.820091-19.025634-1.82009-28.751743 0-124.534007 101.981948-225.776543 227.426-225.776543C921.804763-128 1023.81515-26.757464 1023.81515 97.776543c0.142195 124.505568-101.868192 225.918738-227.283806 225.918738zM711.442111 811.195156a71.694504 71.694504 0 0 0 71.865138-71.381675 71.694504 71.694504 0 0 0-71.865138-71.324798 71.694504 71.694504 0 0 0-71.893576 71.353237 71.609187 71.609187 0 0 0 71.893576 71.353236zM85.245649 428.890827c0 57.105341 46.725137 103.517649 104.2855 103.517649 57.531924 0 104.257061-46.412309 104.257062-103.517649s-46.725137-103.517649-104.257062-103.51765c-57.560363 0-104.2855 46.554503-104.2855 103.51765z m711.257256-472.285056c-78.406088 0-142.194573 63.333463-142.194573 141.170772 0 77.837309 63.788486 141.142333 142.194573 141.142334 78.434527 0 142.194573-63.305024 142.194573-141.142334s-63.760047-141.170772-142.194573-141.170772z"  horiz-adv-x="1024" />

    
    <glyph glyph-name="gonggao" unicode="&#59053;" d="M771.953633 815.160365c17.749323 0.284444 32.455093-14.44977 33.023982-33.166204v-796.017335a35.043536 35.043536 0 0 0-16.611546-28.529762 31.573316 31.573316 0 0 0-31.772427-0.568889L472.1778 158.975841l-2.047999 1.621332-2.303999 1.336888a127.999929 127.999929 0 0 1-66.303963 18.602656H223.601938c-17.720879-0.455111-32.455093 14.222214-33.023982 32.88176V554.580954c0.568889 18.631101 15.303103 33.308426 33.023982 32.853315h176.895902a127.999929 127.999929 0 0 1 66.303963 18.602657h2.303999l2.047998 1.621332 285.439842 202.097665c4.721775 2.673776 10.012439 4.067553 15.359991 4.039109v1.365333z m0 79.502178a104.675497 104.675497 0 0 1-55.551969-15.92888L428.401824 676.123998c-8.504884-5.119997-18.119101-7.793773-27.903984-7.793774H223.601938C163.470416 668.728446 114.346888 617.869808 113.777999 554.580954v-341.162477c0.568889-63.288854 49.692417-114.175937 109.823939-113.720826h176.895902c9.784883 0 19.3991-2.702221 27.903984-7.822218l287.99984-203.974997a105.073719 105.073719 0 0 1 109.482606-1.024c34.047981 20.195544 55.352858 57.941301 55.893302 99.10039V781.994161a117.845268 117.845268 0 0 1-32.483537 80.952844A106.29683 106.29683 0 0 1 771.953633 895.999431v-1.336888z"  horiz-adv-x="1024" />

    
    <glyph glyph-name="faxian" unicode="&#59054;" d="M512 802.901333A418.901333 418.901333 0 0 1 101.461333 300.174222a46.535111 46.535111 0 0 0-91.221333-18.517333C3.413333 315.335111 0 349.639111 0 384 0 666.737778 229.262222 896 512 896c96.341333 0 186.652444-26.680889 263.623111-73.016889 36.266667 21.902222 69.888 38.769778 99.157333 48.583111 17.863111 6.001778 36.693333 10.24 54.784 10.012445 18.375111-0.227556 40.305778-5.262222 57.514667-22.471111 17.237333-17.237333 22.272-39.168 22.471111-57.543112 0.256-18.119111-3.982222-36.920889-9.984-54.840888-9.784889-29.212444-26.680889-62.833778-48.583111-99.100445A509.809778 509.809778 0 0 0 1024 384c0-282.737778-229.262222-512-512-512-96.341333 0-186.652444 26.680889-263.623111 73.016889-36.266667-21.902222-69.888-38.769778-99.157333-48.583111-17.863111-6.001778-36.693333-10.24-54.784-10.012445-18.346667 0.227556-40.305778 5.262222-57.514667 22.471111-17.237333 17.237333-22.272 39.168-22.471111 57.543112-0.256 18.147556 3.982222 36.920889 9.984 54.840888 12.117333 35.982222 34.872889 78.648889 64.597333 124.700445 65.706667 101.603556 172.373333 230.115556 301.624889 359.367111 104.220444 104.220444 207.872 193.678222 297.415111 258.872889A417.194667 417.194667 0 0 1 512 802.901333z m392.334222-19.598222c-25.287111-8.448-60.359111-26.510222-103.765333-54.528-94.464-61.070222-217.827556-163.015111-344.092445-289.251555-126.236444-126.293333-228.181333-249.656889-289.251555-344.092445-28.017778-43.406222-46.08-78.506667-54.528-103.765333-1.223111-3.697778-2.190222-7.025778-2.929778-9.898667 2.872889 0.739556 6.172444 1.706667 9.898667 2.958222 25.287111 8.419556 60.359111 26.481778 103.765333 54.471111a46.535111 46.535111 0 0 0 51.655111-0.711111A416.768 416.768 0 0 1 512-34.901333c231.367111 0 418.901333 187.534222 418.901333 418.901333a416.768 416.768 0 0 1-73.386666 236.942222 46.535111 46.535111 0 0 0-0.739556 51.626667c28.017778 43.406222 46.08 78.506667 54.528 103.765333 1.223111 3.697778 2.190222 7.025778 2.929778 9.898667a142.791111 142.791111 0 0 1-9.898667-2.929778zM583.111111 294.599111a67.043556 67.043556 0 1 1 0-134.087111 67.043556 67.043556 0 0 1 0 134.087111zM426.666667 227.555556a156.444444 156.444444 0 1 0 312.888889 0 156.444444 156.444444 0 0 0-312.888889 0z"  horiz-adv-x="1024" />

    
    <glyph glyph-name="guanbi" unicode="&#59055;" d="M566.355825 384l90.479264-90.507708a38.398933 38.398933 0 0 0-54.298936-54.32738L512.028445 329.729508l-90.507708-90.507709a38.398933 38.398933 0 0 0-54.32738 54.298937L457.757952 384l-90.507708 90.507708a38.398933 38.398933 0 0 0 54.298936 54.32738L512.028445 438.270492l90.507708 90.507709a38.398933 38.398933 0 0 0 54.32738-54.298937L566.298937 384zM874.030834 746.030832c199.95889-199.95889 199.95889-524.102775 0-724.061664-199.95889-199.95889-524.102775-199.95889-724.061665 0-199.95889 199.95889-199.95889 524.102775 0 724.061664 199.95889 199.95889 524.102775 199.95889 724.061665 0z m-54.32738-54.327379c-169.922391 169.979278-445.484514 169.979278-615.435349 0-169.950835-169.922391-169.950835-445.484514 0-615.435349s445.512958-169.950835 615.463793 0c169.950835 169.950835 169.950835 445.512958 0 615.463792z"  horiz-adv-x="1024" />

    
    <glyph glyph-name="guanbi1" unicode="&#59056;" d="M499.456045-127.996302a469.331639 469.331639 0 0 0-179.626018 903.250071 42.666513 42.666513 0 0 0 55.893132-23.466582 42.666513 42.666513 0 0 0-23.039917-55.466466 383.998613 383.998613 0 0 1-237.22581-354.985385 383.998613 383.998613 0 1 1 655.357633 271.35902 378.878632 378.878632 0 0 1-124.586216 85.333026 42.666513 42.666513 0 0 0-23.039917 55.466466 42.666513 42.666513 0 0 0 55.893131 23.466582 469.331639 469.331639 0 0 0 152.31945-101.972965A469.331639 469.331639 0 0 0 499.456045-127.996302z m0 597.331176a42.666513 42.666513 0 0 0-42.666512 42.666513v341.3321a42.666513 42.666513 0 1 0 85.333025 0v-341.3321a42.666513 42.666513 0 0 0-42.666513-42.666513z"  horiz-adv-x="1024" />

    
    <glyph glyph-name="gonggao1" unicode="&#59057;" d="M530.944 818.688c6.712889 0 13.141333-2.702222 17.863111-7.480889 4.750222-4.807111 7.395556-11.292444 7.395556-18.090667v-818.232888a25.713778 25.713778 0 0 0-7.395556-18.090667 25.144889 25.144889 0 0 0-17.863111-7.480889 20.992 20.992 0 0 0-6.826667 0l-231.822222 226.304-6.286222 6.371556-7.850667 5.632a125.297778 125.297778 0 0 1-64.199111 17.379555H101.205333a25.429333 25.429333 0 0 0-25.258666 25.6V537.400889c0 14.108444 11.292444 25.571556 25.258666 25.571555h112.753778a125.297778 125.297778 0 0 1 64.199111 17.351112l7.850667 4.636444 6.314667 6.371556 231.537777 227.328a20.992 20.992 0 0 0 7.111111 0z m0 76.714667a97.991111 97.991111 0 0 1-50.545778-14.307556L240.241778 646.599111c-7.68-4.579556-16.384-7.054222-25.287111-7.168H101.205333c-55.836444 0-101.12-45.795556-101.12-102.257778v-306.602666c0-27.107556 10.666667-53.134222 29.639111-72.305778a100.522667 100.522667 0 0 1 71.480889-29.952h112.753778c8.903111-0.113778 17.635556-2.56 25.287111-7.168l241.152-234.24c15.246222-9.272889 32.711111-14.222222 50.545778-14.307556 55.836444 0 101.12 45.795556 101.12 102.286223V793.116444C632.035556 849.635556 586.780444 895.431111 530.944 895.431111z m341.248-460.259556H745.813333a38.115556 38.115556 0 0 1-37.916444-38.371555 38.115556 38.115556 0 0 1 37.916444-38.343112h126.378667a38.115556 38.115556 0 0 1 37.944889 38.343112 38.115556 38.115556 0 0 1-37.944889 38.371555zM863.601778 722.773333c-6.542222-0.056889-12.999111-1.820444-18.688-5.12l-109.710222-63.914666c-14.933333-8.704-22.186667-26.453333-17.692445-43.292445 4.522667-16.810667 19.683556-28.444444 36.892445-28.302222 6.570667 0.056889 12.999111 1.820444 18.716444 5.12l109.710222 63.914667c14.933333 8.704 22.186667 26.453333 17.664 43.292444-4.494222 16.810667-19.655111 28.444444-36.892444 28.302222z m-109.198222-511.402666a37.973333 37.973333 0 0 1-36.892445-28.302223 38.542222 38.542222 0 0 1 17.692445-43.292444l109.710222-63.914667c5.688889-3.299556 12.145778-5.063111 18.688-5.12a37.973333 37.973333 0 0 1 36.892444 28.302223 38.542222 38.542222 0 0 1-17.664 43.292444l-109.710222 62.634667a38.087111 38.087111 0 0 1-18.716444 5.12v1.28z"  horiz-adv-x="1024" />

    
    <glyph glyph-name="hezi" unicode="&#59058;" d="M896-128h-768A128 128 0 0 0 0 0V554.666667c-0.028444 7.395556 2.019556 14.648889 5.973333 20.906666l145.92 256A128 128 0 0 0 262.826667 896h498.346666a128 128 0 0 0 110.933334-64.426667l145.92-256c3.953778-6.257778 6.001778-13.511111 5.973333-20.906666v-554.666667a128 128 0 0 0-128-128zM85.333333 512v-512A42.666667 42.666667 0 0 1 128-42.666667h768a42.666667 42.666667 0 0 1 42.666667 42.666667v512H85.333333z m30.72 85.333333h791.893334l-109.653334 192A42.666667 42.666667 0 0 1 761.173333 810.666667H262.826667a42.666667 42.666667 0 0 1-37.12-21.333334L116.053333 597.333333zM725.333333 277.333333h-426.666666a42.666667 42.666667 0 0 0 0 85.333334h426.666666a42.666667 42.666667 0 0 0 0-85.333334z"  horiz-adv-x="1024" />

    
    <glyph glyph-name="dianying" unicode="&#59059;" d="M512 802.901333a418.901333 418.901333 0 1 1 0-837.802666c231.367111 0 418.901333 187.534222 418.901333 418.901333S743.367111 802.901333 512 802.901333zM0 384C0 666.737778 229.262222 896 512 896s512-229.262222 512-512-229.262222-512-512-512S0 101.262222 0 384zM269.994667 396.913778a23.125333 23.125333 0 1 1 32.654222-32.711111 23.125333 23.125333 0 0 1-32.654222 32.711111zM204.515556 298.808889a115.569778 115.569778 0 0 0 51.825777 193.422222 115.655111 115.655111 0 0 0 141.653334-141.596444 115.626667 115.626667 0 0 0-193.479111-51.825778z m294.343111-130.730667a23.125333 23.125333 0 1 1 32.711111-32.711111 23.125333 23.125333 0 0 1-32.711111 32.711111z m-65.422223-98.076444a115.541333 115.541333 0 0 0 51.683556 193.792 115.541333 115.541333 0 0 0 111.502222-193.422222 115.655111 115.655111 0 0 0-163.185778-0.369778z m294.343112 326.912a23.125333 23.125333 0 1 1 32.682666-32.711111 23.125333 23.125333 0 0 1-32.682666 32.711111z m-65.422223-98.104889a115.569778 115.569778 0 0 0 51.854223 193.422222 115.569778 115.569778 0 0 0 111.701333-193.422222 115.683556 115.683556 0 0 0-163.555556 0zM498.915556 625.720889a23.125333 23.125333 0 1 1 32.711111-32.682667 23.125333 23.125333 0 0 1-32.711111 32.711111z m-65.422223-98.048a115.541333 115.541333 0 0 0 51.683556 193.763555 115.541333 115.541333 0 0 0 111.502222-193.422222 115.655111 115.655111 0 0 0-163.185778-0.341333z m35.555556-609.450667c0 25.543111 20.679111 46.250667 46.222222 46.250667h462.506667a46.250667 46.250667 0 1 0 0-92.472889h-462.506667a46.250667 46.250667 0 0 0-46.250667 46.222222z"  horiz-adv-x="1025" />

    
    <glyph glyph-name="huangguan" unicode="&#59060;" d="M956.16 605.44a42.666667 42.666667 0 0 1-46.08-8.106667l-177.066667-160.426666-186.026666 270.08a42.666667 42.666667 0 0 1-69.973334 0l-186.026666-269.653334L113.92 597.333333A42.666667 42.666667 0 0 1 42.666667 566.186667V0A128 128 0 0 1 170.666667-128h682.666666a128 128 0 0 1 128 128V566.186667a42.666667 42.666667 0 0 1-25.173333 39.253333zM896 0A42.666667 42.666667 0 0 0 853.333333-42.666667H170.666667a42.666667 42.666667 0 0 0-42.666667 42.666667v64h768v-64z m0 149.333333h-768V469.333333l142.08-128a42.666667 42.666667 0 0 1 33.706667-10.666666 42.666667 42.666667 0 0 1 29.866666 18.346666L512 607.573333l178.346667-258.56a42.666667 42.666667 0 0 1 29.866666-18.346666 42.666667 42.666667 0 0 1 33.706667 10.666666L896 469.333333v-320z m-448 682.666667a64 64 0 1 1 128 0 64 64 0 0 1-128 0zM0 704a64 64 0 1 1 128 0 64 64 0 0 1-128 0z m896 0a64 64 0 1 1 128 0 64 64 0 0 1-128 0z"  horiz-adv-x="1024" />

    
    <glyph glyph-name="hezi1" unicode="&#59061;" d="M511.488-99.328a128.654222 128.654222 0 0 0-57.116444 13.112889L70.769778 104.192a126.833778 126.833778 0 0 0-70.769778 113.777778V584.391111a126.179556 126.179556 0 0 0 15.36 60.103111V647.395556c1.479111 2.901333 3.356444 5.603556 5.518222 8.021333a127.630222 127.630222 0 0 0 49.891556 42.325333L454.371556 882.631111a128.739556 128.739556 0 0 0 112.981333 0l383.601778-190.407111a126.862222 126.862222 0 0 0 72.049777-113.379556v-360.874666a126.805333 126.805333 0 0 0-70.769777-115.939556L568.604444-88.32c-17.92-7.964444-37.461333-11.747556-57.116444-11.008z m42.638222 470.897778v-370.204445l360.192 178.545778c14.449778 7.253333 23.552 21.987556 23.438222 38.087111v335.928889L554.097778 371.569778zM85.248 565.333333v-347.335111a42.268444 42.268444 0 0 1 23.438222-38.087111l360.192-178.545778V372.423111L85.248 565.333333zM135.537778 635.164444l375.950222-189.952 137.671111 65.564445L286.435556 707.925333 135.537778 635.136z m245.105778 118.471112l363.576888-197.973334 150.897778 71.480889-365.283555 180.224a42.922667 42.922667 0 0 1-37.518223 0l-111.672888-53.731555z"  horiz-adv-x="1024" />

    
    <glyph glyph-name="geren" unicode="&#59062;" d="M512 791.893333c-149.674667 0-287.943111-77.653333-362.780444-203.776a398.08 398.08 0 0 1 0-407.608889c74.808889-126.094222 213.105778-203.776 362.780444-203.776 231.367111 0 418.901333 182.499556 418.901333 407.608889C930.901333 609.393778 743.367111 791.893333 512 791.893333zM0 384.341333C0 659.456 229.262222 882.488889 512 882.488889S1024 659.456 1024 384.284444c0-275.114667-229.262222-498.147556-512-498.147555S0 109.198222 0 384.284444zM526.222222 210.659556c-106.012444 0-180.167111-34.929778-226.076444-66.816a45.767111 45.767111 0 0 0-46.08-4.295112 45.966222 45.966222 0 0 0-6.200889 79.843556c58.794667 40.931556 150.869333 83.228444 278.357333 83.228444 127.488 0 219.591111-42.353778 278.357334-83.228444a46.023111 46.023111 0 0 0-6.200889-79.843556 45.767111 45.767111 0 0 0-46.08 4.295112c-45.852444 31.857778-120.007111 66.844444-226.076445 66.844444z m0 229.888a91.847111 91.847111 0 0 0-91.704889 91.960888A91.847111 91.847111 0 0 0 526.222222 624.469333a91.847111 91.847111 0 0 0 91.704889-91.960889 91.847111 91.847111 0 0 0-91.704889-91.960888z m-183.438222 91.960888c0-101.546667 82.119111-183.921778 183.438222-183.921777s183.438222 82.346667 183.438222 183.921777-82.119111 183.921778-183.438222 183.921778-183.438222-82.346667-183.438222-183.921778z"  horiz-adv-x="1024" />

    
    <glyph glyph-name="gouwuche" unicode="&#59063;" d="M895.857778 144.412444H324.920889c-45.226667 0.398222-82.944 36.010667-87.665778 82.773334l-39.708444 377.742222c-2.844444 26.424889 5.347556 52.849778 22.471111 72.618667a86.471111 86.471111 0 0 0 65.422222 30.350222h651.121778a87.125333 87.125333 0 0 0 64.426666-31.630222c17.066667-19.825778 25.230222-46.222222 22.471112-72.647111l-39.68-376.462223c-4.608-46.876444-42.552889-82.602667-87.921778-82.773333zM285.44 630.044444a12.8 12.8 0 0 1-9.728-4.664888 15.701333 15.701333 0 0 1-3.726222-12.202667l40.192-377.998222a13.994667 13.994667 0 0 1 13.255111-13.226667h570.424889a13.966222 13.966222 0 0 1 13.482666 13.226667l39.708445 378.026666a16.782222 16.782222 0 0 1-3.754667 12.174223 12.8 12.8 0 0 1-9.728 4.664888H285.468444zM254.008889 387.242667c-18.972444 0-34.958222 14.705778-37.233778 34.247111L172.088889 805.973333a14.193778 14.193778 0 0 1-13.255111 12.202667H37.461333C16.782222 818.176 0 835.584 0 857.088 0 878.563556 16.782222 896 37.461333 896h121.372445C203.093333 895.658667 240.298667 861.582222 246.243556 816.071111l44.942222-386.019555c1.223111-10.24-1.564444-20.593778-7.68-28.728889-6.144-8.106667-15.132444-13.368889-25.031111-14.592l-4.465778 0.512z m142.336-333.653334c27.591111 0 49.948444-23.210667 49.948444-51.882666 0-28.643556-22.357333-51.882667-49.948444-51.882667s-49.948444 23.239111-49.948445 51.882667c0 28.672 22.385778 51.911111 49.948445 51.911111z m0 77.852445c-68.949333 0-124.871111-58.083556-124.871111-129.706667 0-71.68 55.921778-129.735111 124.871111-129.735111 68.977778 0 124.871111 58.083556 124.871111 129.706667 0 34.417778-13.141333 67.413333-36.551111 91.733333a122.567111 122.567111 0 0 1-88.32 38.001778z m424.590222-77.824c20.195556 0 38.4-12.657778 46.136889-32.028445a53.361778 53.361778 0 0 0-10.808889-56.547555 48.583111 48.583111 0 0 0-54.442667-11.264 51.939556 51.939556 0 0 0-30.833777 47.928889c0 28.672 22.357333 51.911111 49.948444 51.911111z m0 77.824c-68.977778 0-124.871111-58.083556-124.871111-129.706667 0-71.68 55.893333-129.735111 124.871111-129.735111 68.949333 0 124.871111 58.083556 124.871111 129.706667 0 34.417778-13.169778 67.413333-36.579555 91.733333a122.567111 122.567111 0 0 1-88.291556 38.001778z"  horiz-adv-x="1024" />

    
    <glyph glyph-name="jishi" unicode="&#59064;" d="M984.347406 583.196089c-25.486159 60.870959-63.032731 115.370378-109.795281 162.787148a520.133811 520.133811 0 0 1-162.844038 109.681504A505.17207 505.17207 0 0 1 512.711252 895.998862c-68.693162 0-135.964105-14.165298-199.679501-41.04523-60.927848-25.486159-115.455711-62.975843-162.900926-109.681504a519.73559 519.73559 0 0 1-109.766837-162.758704A504.233406 504.233406 0 0 1 0.001422 383.65881c0-68.664717 13.454189-135.878771 40.39101-198.854614 25.457714-60.870959 63.004287-115.370378 109.738393-162.787149a520.1907 520.1907 0 0 1 162.872481-109.681503A505.17207 505.17207 0 0 1 512.000142-127.998578c68.693162 0 135.964105 13.454189 198.996836 40.334122 60.870959 25.486159 115.427267 62.975843 162.872482 109.681503a519.73559 519.73559 0 0 1 109.766836 162.787149A504.233406 504.233406 0 0 1 1023.998862 383.630365c0 68.664717-13.454189 135.878771-39.651456 199.565724zM512.711252-39.536577c-233.698971 0-424.19094 190.349746-424.19094 423.878052 0 233.528305 190.491968 423.906496 424.19094 423.906495 233.698971 0 424.19094-190.349746 424.190939-423.906495 0-233.528305-190.491968-423.878051-424.190939-423.878052zM512.057031 625.663538A42.382116 42.382116 0 0 1 469.362027 668.443876 42.382116 42.382116 0 0 1 426.667022 625.663538v-284.216178A42.382116 42.382116 0 0 1 469.362027 298.667022c2.161772 0 3.612435 0 5.802652 0.71111 1.422219 0 3.612435-0.711109 5.774208-0.71111H753.777316A42.382116 42.382116 0 0 1 796.443876 341.44736a42.382116 42.382116 0 0 1-42.695005 42.780337h-240.980731V625.663538h-0.711109z"  horiz-adv-x="1024" />

    
    <glyph glyph-name="gouwudai" unicode="&#59065;" d="M866.558227 597.334827h-118.555851c2.190211 14.108374 3.327983 28.387414 3.384872 42.666453 0 141.368182-113.777209 255.99872-254.092952 255.99872-140.344187 0-254.121396-114.630538-254.121396-255.99872 0.056889-14.27904 1.194661-28.558079 3.413316-42.666453h-118.61274a107.604795 107.604795 0 0 1-16.497696 0 124.301601 124.301601 0 0 1-84.707132-49.066422A128.710468 128.710468 0 0 1 2.221216 452.268885l62.236133-469.330986c8.533291-63.942791 63.004129-111.501665 127.060698-110.932779h614.055596c64.056569-0.568886 118.527407 46.989987 127.060698 110.932779l62.264578 469.330986c0.39822 5.68886 0.39822 11.377721 0 17.066582a128.482913 128.482913 0 0 1-37.660256 90.964878 126.577145 126.577145 0 0 1-90.680436 37.034482zM497.294296 810.667093c93.55331 0 169.38582-76.401396 169.385819-170.665813a159.40187 159.40187 0 0 0-5.518194-42.666453H333.398226a159.40187 159.40187 0 0 0-5.518194 42.666453c0 94.264418 75.83251 170.665813 169.414264 170.665813z m411.190833-346.878265l-62.236134-469.330987A42.467343 42.467343 0 0 0 803.838541-42.661973H190.266498A42.467343 42.467343 0 0 0 147.912932-5.542159l-62.236134 469.330987a42.894008 42.894008 0 0 0 8.476402 31.573175c6.826633 9.159065 17.066581 15.160813 28.35897 16.639917h744.102946c11.207055 0 21.987446-4.4942 29.923406-12.515493 7.964405-7.964405 12.401716-18.830128 12.401716-30.15096 0 0-0.426665-3.839981-0.426665-5.546639z m-640.309688-104.959475c0-35.356268 28.444302-63.99968 63.516127-63.99968a63.772126 63.772126 0 0 1 63.516127 63.99968c0 35.356268-28.444302 63.99968-63.516127 63.99968a63.772126 63.772126 0 0 1-63.516127-63.99968z m352.766237 0c0-35.356268 28.444302-63.99968 63.516126-63.99968a63.772126 63.772126 0 0 1 63.544572 63.99968c0 35.356268-28.444302 63.99968-63.544572 63.99968a63.772126 63.772126 0 0 1-63.516126-63.99968z"  horiz-adv-x="1024" />

    
    <glyph glyph-name="huiyuan" unicode="&#59066;" d="M512.027591-99.555556a155.875556 155.875556 0 0 0-116.906667 52.935112L39.224036 357.717333a157.866667 157.866667 0 0 0-12.401778 192.170667L174.648036 769.991111A155.619556 155.619556 0 0 0 303.984924 839.111111H719.95648c51.911111 0 100.266667-25.827556 129.336889-69.12l147.939555-220.103111a157.866667 157.866667 0 0 0-12.401777-192.170667L628.962702-46.648889A155.875556 155.875556 0 0 0 512.027591-99.555556z m-53.589333 109.425778c13.824-15.616 32.711111-24.263111 53.589333-24.263111s39.765333 8.647111 53.589333 24.263111l355.84 404.337778a72.277333 72.277333 0 0 1 5.688889 87.978667l-147.854222 220.131555a71.025778 71.025778 0 0 1-59.221333 31.630222H303.984924c-23.836444 0-45.966222-11.776-59.221333-31.630222l-147.825778-220.131555c-18.346667-27.249778-15.928889-63.431111 5.632-87.978667l355.84-404.337778zM512.027591 106.808889a123.960889 123.960889 0 0 0-92.814222 41.984L163.92448 438.897778a42.666667 42.666667 0 0 0 3.697778 60.017778 42.040889 42.040889 0 0 0 59.648-3.697778l255.288889-290.076445a38.684444 38.684444 0 0 1 29.468444-13.340444 38.684444 38.684444 0 0 1 29.468445 13.368889l255.288888 290.076444a42.040889 42.040889 0 0 0 59.676445 3.697778 42.666667 42.666667 0 0 0 3.669333-60.046222L604.841813 148.764444A123.960889 123.960889 0 0 0 512.027591 106.808889z"  horiz-adv-x="1024" />

    
    <glyph glyph-name="jianshao" unicode="&#59067;" d="M512-128C229.233778-128 0 101.233778 0 384S229.233778 896 512 896s512-229.233778 512-512-229.233778-512-512-512z m0 938.666667C276.366222 810.666667 85.333333 619.633778 85.333333 384c0-235.633778 191.032889-426.666667 426.666667-426.666667 235.633778 0 426.666667 191.032889 426.666667 426.666667A426.666667 426.666667 0 0 1 512 810.666667z m213.333333-462.933334h-426.666666a42.666667 42.666667 0 0 0 0 85.333334h426.666666a42.666667 42.666667 0 0 0 0-85.333334z"  horiz-adv-x="1024" />

    
    <glyph glyph-name="jubao" unicode="&#59068;" d="M512 802.901333a418.901333 418.901333 0 1 1 0-837.802666c231.367111 0 418.901333 187.534222 418.901333 418.901333S743.367111 802.901333 512 802.901333zM0 384C0 666.737778 229.262222 896 512 896s512-229.262222 512-512-229.262222-512-512-512S0 101.262222 0 384zM564.622222 522.979556c11.235556-10.126222 16.867556-25.258667 15.018667-40.419556l-37.319111-303.729778 26.567111 6.769778a44.942222 44.942222 0 0 0 44.003555-12.572444c11.377778-11.946667 15.644444-29.155556 11.093334-45.141334a45.880889 45.880889 0 0 0-32.995556-32.199111l-91.022222-23.182222a44.913778 44.913778 0 0 0-41.187556 10.24 46.819556 46.819556 0 0 0-14.990222 40.476444l37.262222 303.701334-26.567111-6.769778a45.454222 45.454222 0 0 0-54.897777 33.792c-6.058667 24.689778 8.561778 49.777778 32.768 56.149333l91.022222 23.153778a44.913778 44.913778 0 0 0 41.244444-10.268444zM443.448889 650.524444c0 25.6 20.366222 46.364444 45.511111 46.364445h45.482667c25.144889 0 45.511111-20.764444 45.511111-46.364445 0-25.6-20.366222-46.364444-45.511111-46.364444h-45.511111c-12.060444 0-23.637333 4.892444-32.170667 13.596444-8.533333 8.704-13.340444 20.48-13.340445 32.768z"  horiz-adv-x="1024" />

    
    <glyph glyph-name="qiapian" unicode="&#59069;" d="M1024 656.810667C1024 726.072889 965.034667 782.222222 892.330667 782.222222H131.697778C58.965333 782.222222 0 726.072889 0 656.810667V82.773333C0 13.482667 58.965333-42.666667 131.669333-42.666667H892.302222C965.034667-42.666667 1024 13.482667 1024 82.744889V656.782222zM131.669333 698.624H892.302222c24.149333 0 43.889778-18.830222 43.889778-41.813333v-101.717334H87.779556V656.810667c0 22.983111 19.740444 41.813333 43.889777 41.813333zM892.302222 40.931556H131.697778c-24.149333 0-43.889778 18.830222-43.889778 41.813333V471.495111h848.440889v-388.750222c0-22.983111-19.740444-41.813333-43.889778-41.813333z m-509.070222 189.496888H184.32c-24.291556 0-43.889778-18.659556-43.889778-41.813333 0-23.096889 19.626667-41.784889 43.889778-41.784889h198.940444c24.291556 0 43.889778 18.688 43.889778 41.813334s-19.598222 41.813333-43.889778 41.813333z"  horiz-adv-x="1024" />

    
    <glyph glyph-name="kaishi" unicode="&#59070;" d="M512 792.797405a407.579676 407.579676 0 1 1 0-815.159351c225.113946 0 407.579676 182.493405 407.579676 407.579676 0 225.113946-182.46573 407.579676-407.579676 407.579675zM13.837838 385.21773c0 275.123892 223.065946 498.162162 498.162162 498.162162s498.162162-223.03827 498.162162-498.162162c0-275.096216-223.065946-498.162162-498.162162-498.162162s-498.162162 223.065946-498.162162 498.162162zM692.057946 306.978595c25.738378 16.937514 41.347459 46.495135 41.347459 78.239135s-15.609081 61.273946-41.347459 78.211459l-238.010811 156.505946C395.07027 658.708757 318.27027 614.427676 318.27027 541.696V228.739459c0-72.704 76.8-116.957405 135.776865-78.211459l237.95546 156.47827h0.055351z m-47.242378 78.239135L406.832432 228.739459V541.696l238.010811-156.47827H644.843243z"  horiz-adv-x="1024" />

    
    <glyph glyph-name="huo" unicode="&#59071;" d="M685.131571 884.765078c12.600178-10.694508 18.772275-27.191356 16.212419-43.574432-22.754272-148.955156-10.950494-249.443712 5.00594-310.880247 7.992438-30.803596 17.065704-52.135727 23.664443-65.07722 2.758956-5.489468 5.859225-10.808279 9.272366-15.899548 10.466965-13.368135 13.083707-31.287125 6.826282-47.101344a47.215115 47.215115 0 1 0-81.147424-11.860664l36.975692 29.751211c-36.918807-29.751211-36.975693-29.694326-37.032578-29.665883l-0.142214 0.142215-0.227543 0.284428-0.511971 0.767957a93.605388 93.605388 0 0 0-5.745454 8.248424 245.603928 245.603928 0 0 0-12.51485 21.986315c-13.368135 26.906927-23.778215 55.179111-31.088024 84.361465-15.899548 61.436536-26.793156 148.471628-16.895048 265.513917-77.478298-43.688203-115.989904-102.963083-135.729235-154.586838a323.679526 323.679526 0 0 1-19.909988-87.376407 272.141099 272.141099 0 0 1-0.767957-34.074523c1.422142-15.359134-4.664626-30.433839-16.326191-40.474162-11.661565-10.040323-27.447341-13.737892-42.322946-9.954994l11.490907 46.191173-11.547793-46.134287h-0.056886l-0.142214 0.028443-0.284428 0.113771-0.711071 0.170657a82.541123 82.541123 0 0 0-7.053825 2.246984 156.520952 156.520952 0 0 0-15.842662 6.655625 200.180712 200.180712 0 0 0-46.105845 31.116468 241.565045 241.565045 0 0 0-58.023394 80.066596c-36.805036-49.689643-55.804853-103.13374-65.361648-149.381799-5.461025-26.451842-8.475966-53.330326-8.987938-80.351024-0.170657-9.499909 0.056886-18.999818 0.711071-28.499727l0.085329-1.137713v-0.142215 0.085329c0.1991-1.70657 0.284428-3.441584 0.284428-5.176597 0-183.968293 148.386299-333.122549 331.387536-333.122549 183.029679 0 331.387536 149.154256 331.387535 333.122549 0 39.165791-12.230421 66.613133-27.788655 101.654712-3.157155 7.082267-6.428082 14.505849-9.784337 22.356073-9.528352 22.32763-19.170475 48.495043-22.12853 78.871997-2.986498 31.116468 1.279928 63.996391 15.785777 100.289456a47.243558 47.243558 0 0 0 61.237435 25.854542 47.670201 47.670201 0 0 0 26.650942-61.152107c-9.21548-23.180915-10.865165-40.872362-9.471466-55.833296 1.564356-15.700448 6.684068-31.201796 14.932491-50.514485 2.30387-5.40414 4.920611-11.149594 7.679567-17.236362C917.02605 410.025626 938.642609 362.412311 938.642609 301.146432c0.426643-236.559105-189.998175-428.66205-425.334238-429.088693-235.336063-0.426643-426.443509 190.993675-426.841709 427.55278-0.910171 12.657064-1.251485 25.342571-1.052385 38.028077 0.369757 24.659943 2.844284 58.933566 10.978936 98.127801 16.212419 78.30314 55.634196 178.222839 148.670728 258.403206a47.15823 47.15823 0 0 0 46.95913 8.589738c16.041762-5.859225 27.73177-19.966874 30.519168-36.890364 6.456525-38.65382 18.573175-65.532305 31.287125-84.276137 4.124212 21.218359 10.381637 44.939688 19.909988 69.770288C407.785432 740.417662 482.703874 840.991546 639.623026 893.582359a47.15823 47.15823 0 0 0 45.423216-8.817281h0.056886z"  horiz-adv-x="1024" />

    
    <glyph glyph-name="kaixin" unicode="&#59072;" d="M512 896C229.233778 896 0 666.766222 0 384s229.233778-512 512-512 512 229.233778 512 512A512 512 0 0 1 512 896z m0-938.666667C276.366222-42.666667 85.333333 148.366222 85.333333 384 85.333333 619.633778 276.366222 810.666667 512 810.666667c235.633778 0 426.666667-191.032889 426.666667-426.666667a426.666667 426.666667 0 0 0-426.666667-426.666667z m234.666667 469.333334a42.666667 42.666667 0 0 1-42.666667-42.666667 192 192 0 1 0-384 0 42.666667 42.666667 0 0 1-85.333333 0c0-153.173333 124.16-277.333333 277.333333-277.333333s277.333333 124.16 277.333333 277.333333a42.666667 42.666667 0 0 1-42.666666 42.666667z m-117.333334 91.306666a50.346667 50.346667 0 1 1 0 100.693334 50.346667 50.346667 0 0 1 0-100.693334z m-234.666666 0a50.346667 50.346667 0 1 1 0 100.693334 50.346667 50.346667 0 0 1 0-100.693334z"  horiz-adv-x="1024" />

    
    <glyph glyph-name="lihe" unicode="&#59073;" d="M810.604222-128h-597.30828A127.994631 127.994631 0 0 0 85.329754-0.005369V305.873357A127.994631 127.994631 0 0 0 0 426.643402v85.329755A127.994631 127.994631 0 0 0 127.994631 639.967788h116.901764A141.220743 141.220743 0 0 0 213.324386 714.60288a158.286694 158.286694 0 0 0 38.398389 125.861387A176.205942 176.205942 0 0 0 383.983894 895.928607a170.659508 170.659508 0 0 0 127.994631-62.29072 170.659508 170.659508 0 0 0 127.994632 62.29072 176.205942 176.205942 0 0 0 131.806027-55.46434 158.286694 158.286694 0 0 0 38.398389-127.994631 141.220743 141.220743 0 0 0-31.14536-72.530291h116.901763a127.994631 127.994631 0 0 0 127.994631-127.994632v-85.329754a127.994631 127.994631 0 0 0-85.329754-120.741602V-0.005369a127.994631 127.994631 0 0 0-127.994631-127.994631z m-127.994631 85.329754h127.994631a42.664877 42.664877 0 0 1 42.664877 42.664877V298.648771h-170.659508v-341.319017z m-255.989263 0h170.659508V298.648771h-170.659508v-341.319017zM170.659508 298.648771v-298.65414A42.664877 42.664877 0 0 1 213.324386-42.670246H341.319017V298.648771H170.659508z m511.978526 85.329754h213.324385a42.664877 42.664877 0 0 1 42.664877 42.664877v85.329755a42.664877 42.664877 0 0 1-42.664877 42.636434h-213.324385v-170.659509z m-255.989263 0h170.659509v170.631066h-170.659509v-170.659509zM127.994631 554.581147a42.664877 42.664877 0 0 1-42.664877-42.664877v-85.329754A42.664877 42.664877 0 0 1 127.994631 383.978525H341.319017v170.659509H127.994631z m431.341908 87.889647c5.119785-2.218574 10.694663-3.100314 16.212653-2.559892 58.87753 0 142.927338 29.012116 148.900421 85.329754a72.95694 72.95694 0 0 1-17.06595 59.730828 88.742944 88.742944 0 0 1-152.740261-59.730828c0.227546-2.844325 0.227546-5.68865 0-8.532976v-53.331096c-0.17066-7.96411 1.422163-15.814448 4.693137-23.039034v2.133244zM383.983894 810.598853a92.582783 92.582783 0 0 1-68.263803-27.305521 72.95694 72.95694 0 0 1-17.065951-58.024233c5.973083-54.611043 90.022891-85.329754 148.900421-85.329754a30.718712 30.718712 0 0 1 16.212653 2.559892c3.555406 7.167699 5.461104 15.04648 5.546434 23.039034V718.869367a57.170935 57.170935 0 0 0 0 6.399732 93.436081 93.436081 0 0 1-85.329754 85.329754z"  horiz-adv-x="1024" />

    
    <glyph glyph-name="kafei" unicode="&#59074;" d="M862.663111 431.672889a146.346667 146.346667 0 0 1-42.666667-5.973333v48.64a128 128 0 0 1-128 128H128.369778a128 128 0 0 1-128-128v-245.333334a341.333333 341.333333 0 0 1 341.333333-341.333333h138.666667a341.333333 341.333333 0 0 1 329.813333 256 145.066667 145.066667 0 0 1 52.48-10.666667 149.333333 149.333333 0 0 1 0 298.666667z m-128-202.666667a256 256 0 0 0-256-256h-136.96a256 256 0 0 0-256 256v245.333334a42.666667 42.666667 0 0 0 42.666667 42.666666h565.333333a42.666667 42.666667 0 0 0 42.666667-42.666666l-1.706667-245.333334z m128-10.666666a62.72 62.72 0 0 0-37.546667 12.373333h-3.413333v101.546667h2.986667a64 64 0 1 0 37.973333-113.92zM204.743111 707.697778l-8.106667-12.373334a42.666667 42.666667 0 0 1 11.946667-59.306666 42.666667 42.666667 0 0 1 23.466667-7.253334 42.666667 42.666667 0 0 1 35.413333 19.2l8.106667 12.373334a102.826667 102.826667 0 0 1-13.226667 128 19.626667 19.626667 0 0 0-2.986667 27.306666l9.386667 15.786667A42.666667 42.666667 0 0 1 195.356444 874.951111l-9.386666-16.64a105.386667 105.386667 0 0 1 15.36-128c6.968889-5.432889 8.448-15.36 3.413333-22.613333z m178.773333 0l-8.106666-12.373334a42.666667 42.666667 0 0 1 35.413333-66.56 42.666667 42.666667 0 0 1 35.413333 19.2l8.106667 12.373334a102.826667 102.826667 0 0 1-13.226667 128 20.053333 20.053333 0 0 0-3.413333 27.306666l9.813333 15.786667a42.666667 42.666667 0 0 1-73.386666 43.52l-9.386667-16.64a105.386667 105.386667 0 0 1 16.64-128c6.172444-5.973333 7.082667-15.587556 2.133333-22.613333z m178.773334 0l-8.106667-12.373334a42.666667 42.666667 0 0 1 35.413333-66.56 42.666667 42.666667 0 0 1 35.413334 19.2l8.106666 12.373334a102.826667 102.826667 0 0 1-13.226666 128 20.053333 20.053333 0 0 0-3.413334 27.306666l11.52 15.36A42.666667 42.666667 0 0 1 611.356444 889.457778a42.666667 42.666667 0 0 1-58.453333-14.506667l-10.24-16.64a105.813333 105.813333 0 0 1 16.213333-128 17.493333 17.493333 0 0 0 3.413334-22.613333z"  horiz-adv-x="1024" />

    
    <glyph glyph-name="libao" unicode="&#59075;" d="M754.549622-106.136216H269.450378C174.27373-106.136216 96.864865-29.004108 96.864865 65.812757V480.311351c0 94.816865 77.408865 171.976649 172.585513 171.976649h485.099244c95.148973 0 172.585514-77.159784 172.585513-171.976649v-414.498594c0-94.816865-77.436541-171.948973-172.585513-171.948973zM269.450378 569.648432a89.586162 89.586162 0 0 1-89.669189-89.337081v-414.498594a89.558486 89.558486 0 0 1 89.669189-89.309406h485.099244a89.586162 89.586162 0 0 1 89.669189 89.309406V480.311351a89.586162 89.586162 0 0 1-89.669189 89.337081H269.450378z m187.225946 6.642163c-43.312432 0-92.326054 24.686703-131.127351 66.089513-27.315892 29.142486-46.495135 63.432649-53.967568 96.588108-9.132973 40.406486-0.083027 76.827676 24.76973 99.936865 16.57773 15.443027 38.579892 23.607351 63.626379 23.607351 43.312432 0 92.326054-24.714378 131.127351-66.089513 27.288216-29.142486 46.467459-63.432649 53.967567-96.588108 9.132973-40.406486 0.110703-76.827676-24.742054-99.964541-16.605405-15.443027-38.607568-23.607351-63.654054-23.607351z m-96.69881 203.58227c-4.096 0-6.420757-0.83027-7.029622-1.383784-0.885622-0.802595-3.680865-7.140324-0.442811-21.393297 4.234378-18.736432 16.494703-40.019027 33.653622-58.312649 25.821405-27.537297 54.022919-39.852973 70.517621-39.852973 4.096 0 6.448432 0.802595 7.057298 1.356108 0.857946 0.802595 3.653189 7.140324 0.44281 21.393298-4.262054 18.764108-16.522378 40.019027-33.681297 58.340324-25.821405 27.537297-54.022919 39.852973-70.517621 39.852973zM567.351351 576.262919h-0.027675c-25.046486 0-47.048649 8.192-63.654054 23.635027-47.159351 43.893622-34.594595 128.359784 29.225513 196.497297 38.801297 41.402811 87.814919 66.144865 131.155027 66.144865 25.018811 0 47.048649-8.192 63.626379-23.635027 47.187027-43.893622 34.62227-128.387459-29.225514-196.524973-38.773622-41.402811-87.787243-66.117189-131.099676-66.117189z m96.698811 203.609946c-16.522378 0-44.723892-12.315676-70.545297-39.852973-35.729297-38.164757-38.745946-74.613622-33.210811-79.733622 0.581189-0.553514 2.961297-1.383784 7.029622-1.383784 16.522378 0 44.723892 12.343351 70.517621 39.852973 35.756973 38.192432 38.745946 74.613622 33.210811 79.733622-0.581189 0.553514-2.933622 1.383784-7.001946 1.383784zM512-98.553081a41.375135 41.375135 0 0 0-41.458162 41.347459V597.573189c0 22.804757 18.542703 41.319784 41.458162 41.319784s41.485838-18.515027 41.485838-41.319784v-654.806486c0-22.804757-18.570378-41.292108-41.485838-41.292108zM880.64 231.783784H147.345297a41.375135 41.375135 0 0 0-41.458162 41.319784c0 22.832432 18.542703 41.319784 41.458162 41.319783h733.350054c22.887784 0 41.458162-18.487351 41.458163-41.319783 0-22.832432-18.542703-41.319784-41.458163-41.319784z"  horiz-adv-x="1024" />

    
    <glyph glyph-name="loudou" unicode="&#59076;" d="M156.444444 792.519111C156.444444 842.524444 196.266667 883.029333 245.333333 883.029333h533.333334c49.095111 0 88.888889-40.504889 88.888889-90.510222v-97.735111c0-66.076444-28.330667-128.853333-77.596445-171.804444l-157.781333-137.728 157.781333-137.699556a228.010667 228.010667 0 0 0 77.596445-171.804444v-97.763556c0-49.976889-39.822222-90.510222-88.888889-90.510222H245.333333a88.092444 88.092444 0 0 0-62.862222 26.510222 91.335111 91.335111 0 0 0-26.026667 64v97.735111c0 66.048 28.359111 128.796444 77.596445 171.804445l157.781333 137.728-157.781333 137.699555A228.010667 228.010667 0 0 0 156.444444 694.784V792.519111z m622.222223 0H245.333333v-97.735111a136.817778 136.817778 0 0 1 46.592-103.082667l157.752889-137.699555a91.192889 91.192889 0 0 0 31.061334-68.721778c0-26.424889-11.349333-51.512889-31.061334-68.721778l-157.752889-137.756444a136.817778 136.817778 0 0 1-46.592-103.082667v-97.735111h533.333334v97.735111a136.817778 136.817778 0 0 1-46.592 103.082667l-157.752889 137.756444a91.192889 91.192889 0 0 0-31.061334 68.721778c0 26.424889 11.349333 51.512889 31.061334 68.721778l157.752889 137.671111a136.817778 136.817778 0 0 1 46.592 103.111111V792.519111zM464.270222 271.132444a45.824 45.824 0 0 0 67.015111 0l94.833778-99.555555c13.539556-14.250667 17.607111-35.669333 10.268445-54.243556-7.338667-18.602667-24.604444-30.72-43.804445-30.72h-189.639111c-19.171556 0-36.437333 12.117333-43.804444 30.72a51.598222 51.598222 0 0 0 10.296888 54.243556l94.833778 99.555555z"  horiz-adv-x="1024" />

    
    <glyph glyph-name="liaotian" unicode="&#59077;" d="M919.192216-80.840649a42.620541 42.620541 0 0 0-21.919135 6.088649l-185.094919 110.675027A560.95827 560.95827 0 0 0 512-0.249081c-274.681081 0-498.162162 192.982486-498.162162 430.190703C13.837838 667.149838 237.318919 860.132324 512 860.132324S1010.162162 667.149838 1010.162162 429.941622c0-104.64173-42.952649-203.637622-121.66227-281.821406l70.379243-168.683243c7.195676-17.269622 2.601514-37.251459-11.374703-49.567135-8.025946-7.084973-18.127568-10.710486-28.312216-10.710487z m-203.277838 208.45319c7.610811 0 15.193946-2.048 21.919136-6.088649l91.108324-54.438054-31.494919 75.443892a43.699892 43.699892 0 0 0 11.623784 49.816216c74.170811 64.345946 115.020108 148.729081 115.020108 237.595676C924.090811 619.243243 739.217297 773.286054 512 773.286054S99.909189 619.243243 99.909189 429.941622c0-189.301622 184.873514-343.344432 412.090811-343.344433 65.785081 0 128.719568 12.647784 187.142919 37.583568 5.369081 2.297081 11.07027 3.431784 16.771459 3.431784zM260.953946 425.845622a56.32 56.32 0 0 0 56.347676 56.015567 56.347676 56.347676 0 0 0 55.794162-56.596757c0-31.135135-24.908108-56.430703-55.794162-56.569081A56.32 56.32 0 0 0 260.981622 424.683243v1.134703z m186.478703 0c0-31.965405 25.710703-57.897514 57.399351-57.897514a57.648432 57.648432 0 0 1 57.371676 57.897514 57.648432 57.648432 0 0 1-57.371676 57.897513 57.648432 57.648432 0 0 1-57.399351-57.897513z m186.506378 0a56.32 56.32 0 0 0 56.347676 56.015567 56.347676 56.347676 0 0 0 55.794162-56.596757c0-31.135135-24.908108-56.430703-55.794162-56.569081a56.32 56.32 0 0 0-56.347676 56.015568v1.134703z"  horiz-adv-x="1024" />

    
    <glyph glyph-name="mima" unicode="&#59078;" d="M788.081778 460.8c41.585778 0 75.292444-34.389333 75.292444-76.8v-358.4c0-42.410667-33.706667-76.8-75.292444-76.8H235.918222c-41.585778 0-75.292444 34.389333-75.292444 76.8V384c0 42.410667 33.706667 76.8 75.292444 76.8h552.163556z m0 76.8H235.918222C152.746667 537.6 85.333333 468.821333 85.333333 384v-358.4C85.333333-59.221333 152.746667-128 235.918222-128h552.163556C871.253333-128 938.666667-59.221333 938.666667 25.6V384c0 84.821333-67.413333 153.6-150.584889 153.6zM512 819.2c97.024 0 175.672889-80.213333 175.672889-179.2v-102.4H336.327111V640c0 98.986667 78.648889 179.2 175.672889 179.2zM512 896c-138.609778 0-250.993778-114.631111-250.993778-256v-179.2h501.987556V640c0 141.368889-112.355556 256-250.993778 256z m0-806.4c-20.792889 0-37.660444 17.180444-37.660444 38.4v153.6c0 21.219556 16.867556 38.4 37.660444 38.4 20.792889 0 37.660444-17.180444 37.660444-38.4V128c0-21.219556-16.867556-38.4-37.660444-38.4z"  horiz-adv-x="1024" />

    
    <glyph glyph-name="lianjie" unicode="&#59079;" d="M473.04201 732.460344A218.858722 218.858722 0 0 1 163.539656 422.95799l102.276279-102.276278a50.512422 50.512422 0 1 0-71.388615-71.473941l-102.304721 102.333163c-123.436888 125.143389-122.754288 326.482036 1.564293 450.800616 124.290138 124.290138 325.628786 124.972739 450.800616 1.535851l-34.983265-34.954824 34.983265 34.954824 102.276279-102.276279a50.512422 50.512422 0 0 0-71.388615-71.47394L473.098893 732.460344h-0.056883z m281.686391-210.269335a50.512422 50.512422 0 0 0 71.417057 0l104.039663-104.039663c124.944297-124.887414 124.944297-327.420612 0.028442-452.364909-124.887414-124.915855-327.449054-124.915855-452.364909 0l-104.039663 104.039663a50.512422 50.512422 0 1 0 71.417056 71.445499l104.039663-104.039663a218.858722 218.858722 0 1 1 309.502354 309.44547l-104.039663 104.068105a50.512422 50.512422 0 0 0 0 71.445498zM385.157221 510.899663c20.534892 20.478009 53.754774 20.478009 74.289666 0l236.179705-236.151264a52.588665 52.588665 0 1 0-74.34655-74.403433l-236.122821 236.151264a52.560223 52.560223 0 0 0 0 74.403433z"  horiz-adv-x="1024" />

    
    <glyph glyph-name="naozhong" unicode="&#59080;" d="M648.895886 412.811279h-94.288357v170.65766a42.664415 42.664415 0 1 1-85.32883 0v-213.322075a42.664415 42.664415 0 0 1 42.664415-42.664414h136.952772a42.664415 42.664415 0 1 1 0 85.328829z m374.963321 270.890592a213.322075 213.322075 0 0 1-408.241565 85.32883 436.855166 436.855166 0 0 1-103.674528 14.079257c-34.98482-0.540416-69.798983-5.261945-103.646085-14.079257A213.322075 213.322075 0 0 1 0.027021 683.701871a213.322075 213.322075 0 0 1 110.07419-186.016849 422.349265 422.349265 0 0 1 98.526356-440.66652l-110.074191-105.807749a42.664415 42.664415 0 0 1 0-60.128382 42.664415 42.664415 0 0 1 60.156825 0l110.500835 105.807749a42.664415 42.664415 0 0 1 3.839797 4.266441 426.615706 426.615706 0 0 1 479.917783 0 27.305226 27.305226 0 0 1 5.546373-8.134682l107.087682-108.367614a42.664415 42.664415 0 1 1 60.583469 60.156826l-107.087681 111.780767h-2.559865a426.615706 426.615706 0 0 1 122.020227 298.622461 419.7894 419.7894 0 0 1-24.745361 141.219214 213.322075 213.322075 0 0 1 110.07419 187.268338zM85.355851 683.701871a127.993245 127.993245 0 0 0 127.993244 127.993245 127.993245 127.993245 0 0 0 114.31219-71.249573 426.615706 426.615706 0 0 1-181.323764-165.111286A127.993245 127.993245 0 0 0 85.355851 683.701871z m426.587263-668.92114C323.451729 14.780731 170.684681 167.576222 170.684681 356.067608c0 188.491385 152.795491 341.286877 341.315319 341.286876 188.462942 0 341.258434-152.795491 341.258434-341.286876a341.286877 341.286877 0 0 0-341.286877-341.286877z m365.605593 560.553526a426.615706 426.615706 0 0 1-181.29532 165.111286 127.993245 127.993245 0 0 0 114.340632 71.22113 127.993245 127.993245 0 0 0 66.954688-236.332416z"  horiz-adv-x="1024" />

    
    <glyph glyph-name="qianbao" unicode="&#59081;" d="M896 810.353778h-768c-70.684444 0-128-55.466667-128-123.875556V108.373333c0-68.408889 57.315556-123.875556 128-123.875555h768c70.684444 0 128 55.466667 128 123.875555V686.478222c0 68.408889-57.315556 123.875556-128 123.875556zM85.333333 480.028444h298.666667c47.132444 0 85.333333-36.977778 85.333333-82.574222 0-45.624889-38.200889-82.602667-85.333333-82.602666H85.333333v165.176888zM938.666667 108.373333c0-22.784-19.114667-41.272889-42.666667-41.272889h-768c-23.552 0-42.666667 18.488889-42.666667 41.272889v123.875556h298.666667c94.264889 0 170.666667 73.955556 170.666667 165.176889 0 91.192889-76.401778 165.148444-170.666667 165.148444H85.333333V686.478222c0 22.812444 19.114667 41.272889 42.666667 41.272889h768c23.552 0 42.666667-18.488889 42.666667-41.272889V108.373333zM332.8 397.454222c0-14.791111 8.135111-28.387556 21.333333-35.783111s29.468444-7.395556 42.666667 0c13.198222 7.395556 21.333333 21.020444 21.333333 35.783111 0 14.734222-8.135111 28.359111-21.333333 35.754667a43.889778 43.889778 0 0 1-42.666667 0c-13.198222-7.395556-21.333333-21.020444-21.333333-35.754667z"  horiz-adv-x="1024" />

    
    <glyph glyph-name="naiping" unicode="&#59082;" d="M789.863784-112.944432H261.811892c-75.692973 0-137.271351 61.993514-137.271351 138.24V379.765622C124.540541 455.956757 186.118919 517.95027 261.811892 517.95027h528.051892c75.692973 0 137.271351-61.993514 137.271351-138.212324v-354.470054c0-76.218811-61.578378-138.24-137.271351-138.24zM261.811892 432.432432a52.528432 52.528432 0 0 1-52.279351-52.639135v-354.470054c0-29.031784 23.468973-52.639135 52.279351-52.639135h528.051892a52.528432 52.528432 0 0 1 52.279351 52.639135V379.765622a52.528432 52.528432 0 0 1-52.307027 52.639135H261.811892z m453.908757 3.902271H335.927351c-87.759568 0-159.162811 71.901405-159.16281 160.297513v7.666162c0 88.368432 71.403243 160.269838 159.16281 160.269838h77.657946v5.811892c0 62.325622 50.36973 113.027459 112.252541 113.02746 61.882811 0 112.224865-50.701838 112.224865-113.02746v-5.811892h77.657946c87.787243 0 159.190486-71.901405 159.190486-160.242162v-7.693838c0-88.396108-71.403243-160.297514-159.190486-160.297513zM335.927351 678.967351a74.502919 74.502919 0 0 1-74.17081-74.696648v-7.666162c0-41.181405 33.266162-74.724324 74.17081-74.724325h379.793298c40.932324 0 74.170811 33.542919 74.17081 74.724325v7.666162a74.502919 74.502919 0 0 1-74.17081 74.696648H595.580541a42.620541 42.620541 0 0 0-42.509838 42.786595V770.352432a27.371243 27.371243 0 0 1-27.232865 27.454271 27.371243 27.371243 0 0 1-27.232865-27.454271v-48.598486a42.620541 42.620541 0 0 0-42.509838-42.786595h-120.167784z m64.041514-387.459459H320.207568a42.620541 42.620541 0 0 0-42.482163 42.81427 42.620541 42.620541 0 0 0 42.482163 42.786595h79.788973a42.620541 42.620541 0 0 0 42.509837-42.786595 42.620541 42.620541 0 0 0-42.509837-42.786594z m96.034594-128.359784H320.207568a42.620541 42.620541 0 0 0-42.482163 42.786595 42.620541 42.620541 0 0 0 42.482163 42.786594h175.851243a42.620541 42.620541 0 0 0 42.482162-42.786594 42.620541 42.620541 0 0 0-42.482162-42.786595z m-96.034594-128.387459H320.207568a42.620541 42.620541 0 0 0-42.482163 42.786594 42.620541 42.620541 0 0 0 42.482163 42.814271h79.788973a42.620541 42.620541 0 0 0 42.509837-42.814271 42.620541 42.620541 0 0 0-42.509837-42.786594z"  horiz-adv-x="1024" />

    
    <glyph glyph-name="qianbao1" unicode="&#59083;" d="M498.26289-128C322.353938-128 83.134827-97.7101 34.187485 162.896809c-10.978311 63.566129-27.872397 279.406556 245.959681 391.578733 49.37396 29.863282 54.009879 49.487725 54.436497 55.033763a47.013338 47.013338 0 0 1-18.145499 30.261459c-69.908521 3.668918-123.633988 63.907424-120.021953 134.583858 3.612035 70.676434 63.196393 124.999167 133.104914 121.35869 19.226265-0.170647 38.111236-4.835008 55.261293-13.651786a125.340461 125.340461 0 0 0 113.480472 0 125.340461 125.340461 0 0 0 113.082295 0 125.482668 125.482668 0 0 0 137.541746-17.94641 128.838732 128.838732 0 0 0 38.68006-134.669182 126.93317 126.93317 0 0 0-106.597696-89.67517c-8.191072-5.688244-13.793992-14.419699-15.642672-24.288803 0-11.518695 13.936198-34.556084 54.436497-64.845984 188.167119-102.786573 269.622776-233.331778 241.75038-388.592404C927.355593-29.877787 771.668349-128 498.26289-128z m-103.355397 669.676992a261.886764 261.886764 0 0 0-73.83341-62.712892l-6.313951-3.412947c-210.976978-85.323663-208.019091-235.863047-197.04078-298.575939C146.416544 23.421061 260.323634-42.676337 498.26289-42.676337c237.967697 0 353.55282 70.392022 379.718743 220.988288 7.593806 42.63339 30.801842 173.576772-201.648257 298.547498a17.263821 17.263821 0 0 1-4.664361 2.986328 313.308492 313.308492 0 0 0-63.708335 61.859656h-213.053187z m22.781418 85.323663h164.959082a130.971823 130.971823 0 0 0 62.001862 91.694497 41.808595 41.808595 0 0 0 30.403666 6.399275 42.718714 42.718714 0 0 1 38.168118 46.700485 42.519626 42.519626 0 0 1-46.188543 38.594737c-10.466369 0-20.534562-3.981771-28.270574-11.092076a41.865477 41.865477 0 0 0-56.939324 0 41.837036 41.837036 0 0 1-56.541148 0 41.837036 41.837036 0 0 0-56.541147 0 41.837036 41.837036 0 0 1-56.541148 0 41.837036 41.837036 0 0 0-56.541147 0 41.950801 41.950801 0 0 1-26.165924 11.092076 42.121448 42.121448 0 0 1-37.883706-18.913412 43.145332 43.145332 0 0 1-2.758799-42.661832c6.712128-13.680227 20.107943-22.752977 35.181791-23.719978 12.34349 2.588151 25.198922-0.568824 35.011143-8.532366a152.814681 152.814681 0 0 0 58.645798-89.589847z m80.573979-604.43283c-23.29336 0-42.178331 19.112501-42.178331 42.661831v49.914343h-84.385103c-23.321801 0-42.178331 19.084059-42.178331 42.661832 0 23.549331 18.884971 42.63339 42.178331 42.63339h84.385103v50.340962h-126.563434c-23.321801 0-42.206772 19.084059-42.206772 42.661831 0 23.549331 18.884971 42.661832 42.206772 42.661832h84.385103l-33.333111 42.63339a42.946244 42.946244 0 0 0-8.447042 26.023718c0.028441 13.196727 6.114863 25.62554 16.467467 33.702847 18.515235 14.220611 44.937129 10.580134 59.043975-8.105748l50.625373-65.699221 51.051992 67.405694a41.893919 41.893919 0 0 0 59.072416 8.105748c18.486794-14.277493 22.098829-40.9838 8.020425-59.726564l-33.333111-42.661832h84.385103c23.321801 0 42.178331-19.084059 42.17833-42.661832 0-23.549331-18.884971-42.661832-42.17833-42.661831H540.441221v-52.018994h84.385103c23.29336 0 42.178331-19.084059 42.178331-42.661831 0-23.549331-18.884971-42.661832-42.178331-42.661832H540.441221v-49.885902c0-23.549331-18.884971-42.661832-42.206772-42.661831z"  horiz-adv-x="1024" />

    
    <glyph glyph-name="naozhong1" unicode="&#59084;" d="M514.966783 671.172699c-127.283974 0-244.897211-66.64276-308.55342-174.812806a343.993829 343.993829 0 0 1 0-349.654055c63.627765-108.170046 181.269445-174.812806 308.55342-174.812806 196.742626 0 356.252911 156.552178 356.252912 349.654055 0 193.073434-159.510286 349.625612-356.252912 349.625612zM56.886692 321.547087C56.886692 482.109776 144.207765 630.527157 285.912516 710.851167a465.617578 465.617578 0 0 0 458.080091 0c141.733194-80.32401 229.025824-228.712947 229.025824-389.30408C973.046874 73.236674 767.970348-128 514.966783-128 261.963219-128 56.886692 73.265118 56.886692 321.547087zM731.107771 878.866013a51.5109 51.5109 0 0 0 71.876336 4.750038l203.569029-174.841249c21.16185-18.146855 23.323544-49.718969 4.835369-70.482612-18.516618-20.763643-50.686043-22.896894-71.847893-4.721595L735.94314 808.354957a49.292319 49.292319 0 0 0-4.835369 70.482612zM292.226939 879.178889A51.482457 51.482457 0 0 1 257.355397 895.84669c-13.425259 0.8533-26.708302-3.441645-36.834134-12.031535L17.350441 712.216447a47.898595 47.898595 0 0 1-4.778482-69.202661 52.051324 52.051324 0 0 1 71.677232-4.636266l203.142379 171.627151a47.870152 47.870152 0 0 1 4.835369 69.202662z m215.685894-301.983006c28.045139 0 50.799816-21.958263 50.799817-49.036329v-169.92055l129.758545-83.509665c23.323544-15.04653 29.637967-45.509354 14.079457-68.008041-15.586954-22.555574-47.130625-28.614006-70.454169-13.595919l-152.371006 98.072658a48.609679 48.609679 0 0 0-22.584017 40.816201v196.145316c0 27.078066 22.754677 49.036329 50.771373 49.036329z"  horiz-adv-x="1024" />

    
    <glyph glyph-name="rili" unicode="&#59085;" d="M896-128h-768A128 128 0 0 0 0 0v682.666667A128 128 0 0 0 128 810.666667H256V853.333333a42.666667 42.666667 0 0 0 85.333333 0V810.666667h341.333334V853.333333a42.666667 42.666667 0 0 0 85.333333 0V810.666667h128A128 128 0 0 0 1024 682.666667v-682.666667a128 128 0 0 0-128-128zM85.333333 509.866667V0A42.666667 42.666667 0 0 1 128-42.666667h768a42.666667 42.666667 0 0 1 42.666667 42.666667V509.866667H85.333333z m0 85.333333h853.333334V682.666667A42.666667 42.666667 0 0 1 896 725.333333H768v-42.666666a42.666667 42.666667 0 0 0-85.333333 0V725.333333H341.333333v-42.666666a42.666667 42.666667 0 0 0-85.333333 0V725.333333H128A42.666667 42.666667 0 0 1 85.333333 682.666667v-87.466667zM456.533333 87.893333a42.666667 42.666667 0 0 0-29.013333 11.52l-115.626667 108.8a42.865778 42.865778 0 0 0 58.88 62.293334l85.333334-80.64L652.8 384a42.666667 42.666667 0 0 0 59.733333-60.586667l-225.706666-222.72a42.666667 42.666667 0 0 0-30.293334-12.8z"  horiz-adv-x="1024" />

    
    <glyph glyph-name="saoyisao" unicode="&#59086;" d="M810.552889-127.573333a42.666667 42.666667 0 1 0 0 85.304889h85.276444a42.666667 42.666667 0 0 1 42.666667 42.666666v85.276445a42.666667 42.666667 0 0 0 85.304889 0v-85.304889a127.943111 127.943111 0 0 0-127.971556-127.943111h-85.276444z m-597.105778 0H128.170667a127.943111 127.943111 0 0 0-127.971556 127.943111v85.304889a42.666667 42.666667 0 0 0 85.333333 0v-85.304889a42.666667 42.666667 0 0 1 42.638223-42.666667h85.276444a42.666667 42.666667 0 0 0 0-85.276444z m767.715556 469.134222H42.837333a42.666667 42.666667 0 0 0 0 85.304889h938.268445a42.666667 42.666667 0 1 0 0-85.304889z m0 298.552889a42.666667 42.666667 0 0 0-42.666667 42.666666V768.028444a42.666667 42.666667 0 0 1-42.666667 42.666667h-85.276444a42.666667 42.666667 0 0 0 0 85.276445h85.276444a127.943111 127.943111 0 0 0 127.971556-127.943112v-85.304888a42.666667 42.666667 0 0 0-42.666667-42.666667z m-938.296889 16.213333a42.666667 42.666667 0 0 0-42.666667 42.638222V768.056889A127.943111 127.943111 0 0 0 128.170667 896h85.276444a42.666667 42.666667 0 0 0 0-85.304889H128.170667a42.666667 42.666667 0 0 1-42.666667-42.666667v-69.063111a42.666667 42.666667 0 0 0-42.666667-42.666666z"  horiz-adv-x="1024" />

    
    <glyph glyph-name="shangxin" unicode="&#59087;" d="M512 357.12a279.466667 279.466667 0 0 1-223.146667-112.64 42.666667 42.666667 0 0 1 9.813334-59.733333 42.666667 42.666667 0 0 1 59.733333 8.96 192 192 0 0 0 308.906667 0 42.666667 42.666667 0 0 1 34.133333-17.066667 42.666667 42.666667 0 0 1 34.56 67.84A279.466667 279.466667 0 0 1 512 357.12zM512 896C229.233778 896 0 666.766222 0 384s229.233778-512 512-512 512 229.233778 512 512A512 512 0 0 1 512 896z m0-938.666667C276.366222-42.666667 85.333333 148.366222 85.333333 384 85.333333 619.633778 276.366222 810.666667 512 810.666667c235.633778 0 426.666667-191.032889 426.666667-426.666667a426.666667 426.666667 0 0 0-426.666667-426.666667z m117.333333 560.64a50.346667 50.346667 0 1 1 0 100.693334 50.346667 50.346667 0 0 1 0-100.693334z m-234.666666 0a50.346667 50.346667 0 1 1 0 100.693334 50.346667 50.346667 0 0 1 0-100.693334z"  horiz-adv-x="1024" />

    
    <glyph glyph-name="qunzi" unicode="&#59088;" d="M511.501838-111.007135c-233.859459 0-421.528216 102.483027-440.818162 239.394594-3.072 11.125622-1.411459 23.109189 5.147675 32.989406l175.131676 264.053621a316.886486 316.886486 0 0 0-64.567351 162.096433 130.463135 130.463135 0 0 0-1.549838 19.64973v33.487567c0 22.472649 18.321297 40.849297 41.264432 41.402811 186.838486 4.566486 298.067027 54.548757 313.177946 140.786162a41.513514 41.513514 0 0 0 23.801081 30.498595c5.590486 2.573838 12.564757 4.28973 18.764108 4.28973h52.196325c113.47027 0 205.824-74.115459 205.824-165.25146v-85.241081c0-11.07027-1.356108-22.140541-4.040649-32.934054a313.067243 313.067243 0 0 0-62.906811-148.839784l175.076325-263.99827c7.721514-11.623784 8.911568-26.236541 3.376432-38.884324-23.74573-133.95027-209.366486-233.499676-439.877189-233.499676zM156.367568 130.656865c20.203243-78.598919 155.675676-158.830703 355.161946-158.830703 200.288865 0 335.982703 80.812973 355.355675 159.716324l-181.995243 274.404325a40.738595 40.738595 0 0 0 4.511135 50.757189 233.029189 233.029189 0 0 1 62.823784 130.684541c0.276757 1.826595 0.636541 3.625514 1.107027 5.396756 1.273081 4.704865 1.937297 9.520432 1.937297 14.391352V692.390054c0 44.668541-55.517405 82.418162-121.219459 82.418162h-20.313946c-28.367568-78.377514-114.355892-159.660973-343.759568-173.775567l0.304433-2.048 0.332108-2.684541c4.843243-52.445405 26.928432-100.711784 63.875459-139.596108 13.201297-13.920865 15.027892-34.816 4.48346-50.757189L156.367568 130.656865z m355.521729 205.574919c-36.808649 0-71.956757 7.666162-98.995892 21.587027a40.96 40.96 0 0 0-17.712432 55.960216 42.758919 42.758919 0 0 0 57.177946 17.352649c14.861838-7.666162 36.559568-12.066595 59.530378-12.066595 22.998486 0 44.751568 4.400432 59.668757 12.066595a42.81427 42.81427 0 0 0 57.15027-17.380325 40.96 40.96 0 0 0-17.767783-55.904865c-27.039135-13.948541-62.242595-21.614703-99.051244-21.614702z"  horiz-adv-x="1024" />

    
    <glyph glyph-name="shanchu" unicode="&#59089;" d="M874.011741 757.729833v-746.665215c0-29.35461-12.003532-57.457666-33.336825-78.22207A115.455776 115.455776 0 0 0 760.234184-99.555611h-511.999004c-30.179497 0-59.135885 11.6622-80.469177 32.398159a109.084232 109.084232 0 0 0-33.30838 78.22207V757.729833h739.554118z m-85.333168-82.972283h-568.887783V11.093063c0-7.338652 2.986661-14.364417 8.305762-19.56974 5.347545-5.176879 12.57242-8.078207 20.138628-8.078206h511.999004c7.537763 0 14.791082 2.901328 20.110183 8.078206a27.278169 27.278169 0 0 1 8.334206 19.56974V674.75755z m-383.999253-580.720648c-23.580399 0-42.666584 18.545742-42.666584 41.471919V467.341065c0 22.897733 19.086185 41.471919 42.666584 41.471919 23.551954 0 42.666584-18.574186 42.666583-41.471919v-331.860688c0-22.926178-19.114629-41.471919-42.666583-41.47192z m199.110724 0c-23.580399 0-42.666584 18.545742-42.666584 41.471919V467.341065c0 22.897733 19.086185 41.471919 42.666584 41.471919 23.551954 0 42.666584-18.574186 42.666583-41.471919v-331.860688c0-22.926178-19.114629-41.471919-42.666583-41.47192z m355.554864 580.720648h-910.220452c-23.580399 0-42.666584 18.574186-42.666584 41.500364 0 22.897733 19.086185 41.471919 42.666584 41.471919h910.220452c23.551954 0 42.666584-18.574186 42.666584-41.471919 0-22.926178-19.114629-41.500364-42.666584-41.500364z m-331.377133 138.268176l7.111097-55.295893h-261.68838l7.111097 55.295893h247.466186zM652.998837 895.998009h-297.52831c-28.842611 0.227555-53.304785-20.565293-56.888779-48.383906l-21.902179-172.856553h455.110226l-22.186624 172.856553c-3.612437 27.818613-28.074612 48.611461-56.888778 48.355462h0.284444z"  horiz-adv-x="1024" />

    
    <glyph glyph-name="shangchuan" unicode="&#59090;" d="M924.444444-128h-796.444444C73.016889-128 28.444444-82.147556 28.444444-25.6v117.020444c0 24.234667 19.114667 43.889778 42.666667 43.889778s42.666667-19.626667 42.666667-43.889778V-25.6c0-8.078222 6.371556-14.620444 14.222222-14.620444h796.444444c7.850667 0 14.222222 6.542222 14.222223 14.620444v117.020444c0 24.234667 19.114667 43.889778 42.666666 43.889778s42.666667-19.626667 42.666667-43.889778V-25.6c0-56.547556-44.572444-102.4-99.555556-102.4z m-398.222222 948.821333c11.406222 0 22.357333-4.721778 30.378667-13.084444 8.021333-8.334222 12.430222-19.655111 12.288-31.402667v-585.130666c0-24.234667-19.114667-43.889778-42.666667-43.889778s-42.666667 19.626667-42.666666 43.889778V776.334222c-0.142222 11.747556 4.266667 23.04 12.288 31.402667a42.097778 42.097778 0 0 0 30.378666 13.084444zM526.222222 896a42.382222 42.382222 0 0 0 30.151111-12.885333l284.444445-292.551111c8.049778-8.192 12.600889-19.342222 12.600889-31.004445 0-11.662222-4.551111-22.840889-12.600889-31.004444a42.097778 42.097778 0 0 0-60.302222 0l-284.444445 292.551111a44.231111 44.231111 0 0 0-12.600889 31.004444c0 11.662222 4.551111 22.812444 12.600889 31.004445A42.382222 42.382222 0 0 0 526.222222 896z m0 0a42.382222 42.382222 0 0 0 30.151111-12.885333c8.049778-8.192 12.600889-19.342222 12.600889-31.004445 0-11.662222-4.551111-22.812444-12.600889-31.004444l-284.444444-292.579556a42.097778 42.097778 0 0 0-60.302222 0 44.231111 44.231111 0 0 0-12.600889 31.004445c0 11.662222 4.551111 22.840889 12.600889 31.004444l284.444444 292.579556A42.382222 42.382222 0 0 0 526.222222 896z"  horiz-adv-x="1024" />

    
    <glyph glyph-name="shezhi" unicode="&#59091;" d="M634.424889-98.133333h-244.849778a267.406222 267.406222 0 0 0-231.310222 134.485333l-122.595556 213.873778a270.961778 270.961778 0 0 0 0 268.686222l122.595556 213.873778a267.576889 267.576889 0 0 0 231.310222 134.485333h244.707556a267.406222 267.406222 0 0 0 231.310222-134.485333l122.595555-213.873778a270.961778 270.961778 0 0 0 0-268.686222l-122.595555-213.873778a267.178667 267.178667 0 0 0-231.168-134.485333zM231.594667 78.961778a182.755556 182.755556 0 0 1 157.980444-91.875556h244.707556a182.584889 182.584889 0 0 1 157.980444 91.875556l122.567111 213.873778a185.400889 185.400889 0 0 1 0 183.608888l-122.595555 213.902223A182.755556 182.755556 0 0 1 634.311111 782.222222h-244.707555a182.584889 182.584889 0 0 1-157.980445-91.875555l-122.567111-213.902223a185.400889 185.400889 0 0 1 0-183.608888l122.595556-213.902223zM512 166.001778c-119.751111 0-217.201778 98.133333-217.201778 218.709333S392.248889 603.420444 512 603.420444s217.201778-98.133333 217.201778-218.709333S631.751111 166.001778 512 166.001778z m0 352.199111c-73.073778 0-132.579556-59.932444-132.579556-133.489778 0-73.557333 59.505778-133.489778 132.579556-133.489778 73.073778 0 132.579556 59.932444 132.579556 133.489778 0 73.557333-59.505778 133.489778-132.579556 133.489778z"  horiz-adv-x="1024" />

    
    <glyph glyph-name="shebeimingcheng" unicode="&#59092;" d="M511.913102-127.998293a400.041444 400.041444 0 0 0-284.728018 117.930306L117.75964 99.300568c-157.012854 156.984409-157.012854 412.443184 0 569.399149l109.396999 109.368554A400.041444 400.041444 0 0 0 511.884658 895.998578c107.57656 0 208.724696-41.870094 284.784908-117.930307l109.368554-109.368554A399.899223 399.899223 0 0 0 1023.996871 384.000142c0-107.519671-41.898539-208.667807-117.958751-284.728019l-109.368554-109.34011A400.098333 400.098333 0 0 0 511.913102-127.998293z m0 938.663798a315.305703 315.305703 0 0 1-224.42598-92.927716l-109.368555-109.368555c-123.732955-123.732955-123.732955-325.005229 0-448.738184l109.396999-109.368555A315.305703 315.305703 0 0 1 511.913102-42.665221c84.764185 0 164.465275 32.995455 224.425981 92.927716l109.368555 109.368555A315.277259 315.277259 0 0 1 938.635354 384.000142c0 84.764185-32.995455 164.436831-92.927716 224.369092l-109.368555 109.368555A315.391036 315.391036 0 0 1 511.913102 810.665505zM611.553687 526.22193h-170.666145a42.666536 42.666536 0 0 0 0 85.333072h170.666145a42.666536 42.666536 0 0 0 0-85.333072z m85.333073-170.666145h-341.332291a42.666536 42.666536 0 0 0 0 85.333072h341.332291a42.666536 42.666536 0 0 0 0-85.333072z m-85.24774-170.666145h-170.666145a42.666536 42.666536 0 0 0 0 85.333072h170.666145a42.666536 42.666536 0 0 0 0-85.333072z"  horiz-adv-x="1024" />

    
    <glyph glyph-name="shipin" unicode="&#59093;" d="M0 568.490667c0 117.674667 95.516444 213.048889 213.333333 213.048889h359.253334a213.219556 213.219556 0 0 0 212.992-200.248889l175.786666 92.928A42.723556 42.723556 0 0 0 1024 636.586667V139.093333a42.609778 42.609778 0 0 0-62.634667-37.660444l-177.834666 94.065778a213.276444 213.276444 0 0 0-210.915556-180.906667H213.333333c-56.604444 0-110.848 22.442667-150.840889 62.407111A212.906667 212.906667 0 0 0 0 227.612444v75.747556a42.609778 42.609778 0 0 0 64 36.920889c13.198222-7.623111 21.333333-21.674667 21.333333-36.920889v-75.747556a127.914667 127.914667 0 0 1 128-127.829333h359.253334c70.684444 0 128 57.230222 128 127.829333v37.376a42.609778 42.609778 0 0 0 62.691555 37.660445L938.666667 209.834667V565.76l-175.388445-92.728889a42.723556 42.723556 0 0 0-62.663111 37.632v57.827556a127.914667 127.914667 0 0 1-128 127.829333H213.333333A127.914667 127.914667 0 0 1 85.333333 568.490667v-90.453334a42.638222 42.638222 0 0 0-85.333333 0v90.453334zM150.954667 511.715556a118.442667 118.442667 0 0 0 118.528 118.328888h112.526222a118.442667 118.442667 0 0 0 116.252444-118.357333 118.442667 118.442667 0 0 0-116.252444-118.357333H269.482667a118.442667 118.442667 0 0 0-118.528 118.357333z m118.528 33.080888a33.194667 33.194667 0 0 1-29.724445-50.062222c6.172444-10.410667 17.578667-16.611556 29.724445-16.184889h112.526222a33.166222 33.166222 0 0 1 0 66.275556H269.482667z"  horiz-adv-x="1024" />

    
    <glyph glyph-name="shouji" unicode="&#59094;" d="M234.666667 11.662222a46.364444 46.364444 0 0 1 46.222222-46.563555h462.222222a46.364444 46.364444 0 0 1 46.222222 46.535111V756.366222a46.364444 46.364444 0 0 1-46.222222 46.535111H280.888889A46.364444 46.364444 0 0 1 234.666667 756.366222v-512h416c16.497778 0 31.772444-8.874667 40.021333-23.267555 8.248889-14.421333 8.248889-32.142222 0-46.563556-8.248889-14.392889-23.495111-23.267556-40.021333-23.267555H234.666667v-139.633778zM280.888889-128C204.316444-128 142.222222-65.479111 142.222222 11.662222V756.337778C142.222222 833.507556 204.316444 896 280.888889 896h462.222222C819.683556 896 881.777778 833.479111 881.777778 756.337778v-744.675556c0-77.141333-62.094222-139.662222-138.666667-139.662222H280.888889z m138.666667 186.168889a46.364444 46.364444 0 0 0 46.222222 46.563555h92.444444c16.497778 0 31.772444-8.874667 40.021334-23.267555 8.248889-14.421333 8.248889-32.142222 0-46.563556-8.248889-14.392889-23.495111-23.267556-40.021334-23.267555h-92.444444a46.364444 46.364444 0 0 0-46.222222 46.535111z"  horiz-adv-x="1024" />

    
    </font>
</defs>
</svg>
